<?xml version="1.0" standalone="no"?>
<!DOCTYPE svg PUBLIC "-//W3C//DTD SVG 20010904//EN"
 "http://www.w3.org/TR/2001/REC-SVG-20010904/DTD/svg10.dtd">
<svg version="1.0" xmlns="http://www.w3.org/2000/svg"
 width="237.000000pt" height="237.000000pt" viewBox="0 0 237.000000 237.000000"
 preserveAspectRatio="xMidYMid meet">
<metadata>
Created by potrace 1.11, written by Peter Selinger 2001-2013
</metadata>
<g transform="translate(0.000000,237.000000) scale(0.100000,-0.100000)"
fill="#000000" stroke="none">
<path d="M279 2265 c-113 -30 -198 -100 -248 -205 l-26 -55 -1 -800 c-1 -872
-2 -867 55 -948 44 -63 79 -93 156 -129 l70 -33 890 0 890 1 60 23 c84 34 175
125 205 206 21 60 22 61 22 855 0 540 -3 808 -11 835 -13 51 -60 126 -103 165
-35 32 -115 74 -164 86 -16 4 -416 9 -889 10 -651 1 -871 -2 -906 -11z"/>
</g>
</svg>
