<?xml version="1.0" encoding="utf-8"?>
<!DOCTYPE svg PUBLIC "-//W3C//DTD SVG 1.1//EN" "http://www.w3.org/Graphics/SVG/1.1/DTD/svg11.dtd">
<svg version="1.1" id="Layer_1" xmlns="http://www.w3.org/2000/svg" xmlns:xlink="http://www.w3.org/1999/xlink" x="0px" y="0px"
	 width="930.694px" height="218.316px" viewBox="0 0 930.694 218.316" enable-background="new 0 0 930.694 218.316"
	 xml:space="preserve">
<path display="none" d="M40.174-18.021H8.936c-4.042,0-7.319-3.046-7.319-6.803v-29.041c0-3.756,3.277-6.803,7.319-6.803h31.238
	c4.043,0,7.318,3.046,7.318,6.803v29.041C47.492-21.067,44.217-18.021,40.174-18.021"/>
<g display="none">
	<path display="inline" d="M59.132-34.188l-7.92-2.754v-2.016l7.92-2.754v1.998l-5.868,1.764l5.868,1.764V-34.188z"/>
	<path display="inline" d="M71.936-36.815v1.464c0,0.576-0.108,1.072-0.324,1.488s-0.488,0.74-0.815,0.972
		c-0.328,0.232-0.756,0.412-1.284,0.54c-0.528,0.127-1.036,0.211-1.524,0.252c-0.488,0.04-1.06,0.06-1.716,0.06
		c-1.264,0-2.792-0.12-4.584-0.36v-2.328c2.224,0.336,3.769,0.504,4.632,0.504c0.688,0,1.22-0.068,1.597-0.204
		c0.375-0.136,0.563-0.404,0.563-0.804v-0.72c0-0.368-0.104-0.644-0.312-0.828c-0.208-0.184-0.656-0.276-1.345-0.276h-1.512
		c-1.216,0-2.164-0.244-2.844-0.732c-0.681-0.488-1.021-1.204-1.021-2.148v-1.416c0-1.056,0.504-1.784,1.513-2.184
		c1.008-0.4,2.432-0.6,4.271-0.6c0.769,0,2.144,0.072,4.128,0.216v2.232c-2.496-0.192-3.904-0.288-4.224-0.288
		c-0.977,0-1.593,0.068-1.848,0.204c-0.257,0.136-0.385,0.396-0.385,0.78v0.624c0,0.192,0.1,0.368,0.3,0.528
		c0.2,0.16,0.508,0.24,0.925,0.24h1.536C70.512-39.599,71.936-38.671,71.936-36.815z"/>
	<path display="inline" d="M85.999-39.695v3.432c0,0.752-0.12,1.396-0.359,1.932c-0.24,0.536-0.537,0.952-0.889,1.248
		c-0.352,0.296-0.813,0.524-1.38,0.684c-0.568,0.16-1.088,0.26-1.56,0.3c-0.473,0.04-1.044,0.06-1.717,0.06
		c-0.672,0-1.244-0.021-1.716-0.06c-0.472-0.041-0.992-0.141-1.56-0.3c-0.568-0.16-1.028-0.388-1.38-0.684
		c-0.353-0.296-0.648-0.711-0.889-1.248c-0.239-0.536-0.359-1.18-0.359-1.932v-3.432c0-0.8,0.124-1.484,0.372-2.052
		s0.552-1.004,0.912-1.308c0.359-0.304,0.827-0.54,1.403-0.708s1.093-0.272,1.548-0.312c0.456-0.04,1.012-0.06,1.668-0.06
		s1.213,0.02,1.669,0.06c0.455,0.04,0.972,0.144,1.548,0.312s1.044,0.404,1.403,0.708c0.36,0.304,0.664,0.74,0.912,1.308
		S85.999-40.495,85.999-39.695z M82.495-35.855v-4.392c0-0.624-0.16-1.068-0.479-1.332c-0.32-0.264-0.96-0.396-1.921-0.396
		c-0.96,0-1.6,0.132-1.92,0.396c-0.32,0.264-0.479,0.708-0.479,1.332v4.392c0,0.608,0.156,1.032,0.468,1.272
		c0.313,0.24,0.956,0.36,1.932,0.36c0.977,0,1.62-0.12,1.933-0.36C82.339-34.823,82.495-35.247,82.495-35.855z"/>
	<path display="inline" d="M92.335-32.279h-3.504v-16.8h3.504V-32.279z"/>
	<path display="inline" d="M106.711-32.279h-3.456v-1.416c-0.272,1.104-1.512,1.656-3.72,1.656c-1.536,0-2.593-0.276-3.168-0.828
		c-0.576-0.552-0.864-1.388-0.864-2.508v-8.52h3.504v8.04c0,0.64,0.108,1.072,0.324,1.296s0.731,0.336,1.548,0.336
		c1.008,0,1.647-0.108,1.92-0.324c0.271-0.216,0.408-0.652,0.408-1.308v-8.04h3.504V-32.279z"/>
	<path display="inline" d="M117.534-32.159c-0.672,0.08-1.32,0.12-1.944,0.12c-0.544,0-1.02-0.021-1.428-0.06
		c-0.408-0.041-0.832-0.136-1.272-0.288c-0.439-0.152-0.8-0.352-1.079-0.6c-0.28-0.248-0.513-0.6-0.696-1.056
		c-0.185-0.456-0.276-0.996-0.276-1.62v-6.072h-2.352v-2.16h2.352v-3.36h3.504v3.36h3.192v2.16h-3.192v5.472
		c0,0.8,0.12,1.34,0.36,1.62s0.768,0.42,1.584,0.42c0.271,0,0.688-0.04,1.248-0.12V-32.159z"/>
	<path display="inline" d="M123.149-45.263h-3.504v-2.832h3.504V-45.263z M123.149-32.279h-3.504v-11.616h3.504V-32.279z"/>
	<path display="inline" d="M137.789-39.695v3.432c0,0.752-0.12,1.396-0.359,1.932c-0.24,0.536-0.537,0.952-0.889,1.248
		c-0.352,0.296-0.813,0.524-1.38,0.684c-0.568,0.16-1.088,0.26-1.56,0.3c-0.473,0.04-1.044,0.06-1.717,0.06
		c-0.672,0-1.244-0.021-1.716-0.06c-0.472-0.041-0.992-0.141-1.56-0.3c-0.568-0.16-1.028-0.388-1.38-0.684
		c-0.353-0.296-0.648-0.711-0.889-1.248c-0.239-0.536-0.359-1.18-0.359-1.932v-3.432c0-0.8,0.124-1.484,0.372-2.052
		s0.552-1.004,0.912-1.308c0.359-0.304,0.827-0.54,1.403-0.708s1.093-0.272,1.548-0.312c0.456-0.04,1.012-0.06,1.668-0.06
		s1.213,0.02,1.669,0.06c0.455,0.04,0.972,0.144,1.548,0.312s1.044,0.404,1.403,0.708c0.36,0.304,0.664,0.74,0.912,1.308
		S137.789-40.495,137.789-39.695z M134.285-35.855v-4.392c0-0.624-0.16-1.068-0.479-1.332c-0.32-0.264-0.96-0.396-1.921-0.396
		c-0.96,0-1.6,0.132-1.92,0.396c-0.32,0.264-0.479,0.708-0.479,1.332v4.392c0,0.608,0.156,1.032,0.468,1.272
		c0.313,0.24,0.956,0.36,1.932,0.36c0.977,0,1.62-0.12,1.933-0.36C134.129-34.823,134.285-35.247,134.285-35.855z"/>
	<path display="inline" d="M151.733-32.279h-3.504v-8.064c0-0.64-0.108-1.072-0.324-1.296s-0.732-0.336-1.548-0.336
		c-1.008,0-1.648,0.108-1.92,0.324c-0.272,0.216-0.408,0.652-0.408,1.308v8.064h-3.504v-11.616h3.456v1.416
		c0.271-1.104,1.512-1.656,3.72-1.656c1.536,0,2.592,0.276,3.168,0.828c0.576,0.552,0.864,1.388,0.864,2.508V-32.279z"/>
	<path display="inline" d="M164.813-36.815v1.464c0,0.576-0.108,1.072-0.324,1.488s-0.488,0.74-0.815,0.972
		c-0.328,0.232-0.756,0.412-1.284,0.54c-0.528,0.127-1.036,0.211-1.524,0.252c-0.488,0.04-1.06,0.06-1.716,0.06
		c-1.264,0-2.792-0.12-4.584-0.36v-2.328c2.224,0.336,3.769,0.504,4.632,0.504c0.688,0,1.22-0.068,1.597-0.204
		c0.375-0.136,0.563-0.404,0.563-0.804v-0.72c0-0.368-0.104-0.644-0.312-0.828c-0.208-0.184-0.656-0.276-1.345-0.276h-1.512
		c-1.216,0-2.164-0.244-2.844-0.732c-0.681-0.488-1.021-1.204-1.021-2.148v-1.416c0-1.056,0.504-1.784,1.513-2.184
		c1.008-0.4,2.432-0.6,4.271-0.6c0.769,0,2.144,0.072,4.128,0.216v2.232c-2.496-0.192-3.904-0.288-4.224-0.288
		c-0.977,0-1.593,0.068-1.848,0.204c-0.257,0.136-0.385,0.396-0.385,0.78v0.624c0,0.192,0.1,0.368,0.3,0.528
		c0.2,0.16,0.508,0.24,0.925,0.24h1.536C163.389-39.599,164.813-38.671,164.813-36.815z"/>
	<path display="inline" d="M174.711-46.118l-6.804,14.049h-1.827l6.804-14.049H174.711z"/>
	<path display="inline" d="M185.631-37.718l-9.24,3.213v-2.331l6.847-2.058l-6.847-2.058v-2.331l9.24,3.213V-37.718z"/>
</g>
<g display="none">
	<path display="inline" d="M54.838-24.115v0.376c0,0.555-0.156,0.937-0.471,1.148c-0.315,0.21-0.807,0.316-1.473,0.316
		c-0.427,0-0.955-0.043-1.584-0.128v-0.648c0.629,0.133,1.174,0.2,1.632,0.2c0.368,0,0.649-0.041,0.845-0.124
		c0.193-0.083,0.291-0.249,0.291-0.5v-0.672c0-0.219-0.063-0.375-0.188-0.468s-0.351-0.14-0.676-0.14h-0.608
		c-0.522,0-0.887-0.105-1.092-0.316c-0.206-0.211-0.308-0.521-0.308-0.932v-0.416c0-0.411,0.145-0.715,0.436-0.912
		s0.825-0.296,1.604-0.296c0.373,0,0.819,0.029,1.336,0.088v0.584c-0.592-0.09-1.056-0.136-1.392-0.136
		c-0.496,0-0.825,0.049-0.987,0.148c-0.163,0.099-0.244,0.265-0.244,0.5v0.592c0,0.182,0.063,0.313,0.191,0.396
		c0.128,0.083,0.355,0.124,0.68,0.124h0.625c0.538,0,0.903,0.098,1.096,0.292C54.742-24.844,54.838-24.536,54.838-24.115z"/>
	<path display="inline" d="M59.383-24.923v1.344c0,0.24-0.029,0.443-0.088,0.608c-0.059,0.166-0.134,0.293-0.225,0.384
		s-0.22,0.16-0.388,0.208s-0.328,0.077-0.479,0.088c-0.152,0.011-0.354,0.016-0.604,0.016c-0.32,0-0.569-0.011-0.748-0.032
		c-0.179-0.021-0.357-0.073-0.536-0.156s-0.307-0.215-0.384-0.396s-0.116-0.421-0.116-0.72v-1.344c0-0.256,0.031-0.472,0.092-0.648
		c0.062-0.176,0.137-0.312,0.225-0.408s0.217-0.169,0.388-0.22c0.171-0.05,0.329-0.081,0.476-0.092s0.348-0.016,0.604-0.016
		c0.256,0,0.457,0.005,0.604,0.016c0.146,0.011,0.305,0.042,0.476,0.092c0.171,0.051,0.3,0.124,0.388,0.22s0.162,0.232,0.225,0.408
		C59.352-25.395,59.383-25.179,59.383-24.923z M58.646-23.475v-1.568c0-0.357-0.072-0.579-0.216-0.664
		c-0.144-0.085-0.421-0.128-0.832-0.128s-0.688,0.043-0.832,0.128c-0.144,0.085-0.216,0.307-0.216,0.664v1.568
		c0,0.171,0.019,0.307,0.056,0.408c0.037,0.101,0.106,0.175,0.208,0.22c0.102,0.045,0.205,0.074,0.313,0.084
		c0.105,0.011,0.264,0.016,0.472,0.016s0.365-0.005,0.472-0.016c0.107-0.01,0.211-0.039,0.313-0.084
		c0.102-0.045,0.17-0.119,0.207-0.22C58.628-23.168,58.646-23.304,58.646-23.475z"/>
	<path display="inline" d="M62.91-25.755h-1.288v3.4h-0.72v-3.4h-0.889v-0.472h0.889v-0.624c0-0.437,0.123-0.744,0.367-0.92
		c0.246-0.176,0.604-0.264,1.072-0.264c0.209,0,0.424,0.014,0.648,0.04v0.472c-0.188-0.027-0.395-0.04-0.624-0.04
		c-0.262,0-0.45,0.045-0.568,0.136c-0.117,0.09-0.176,0.267-0.176,0.528v0.672h1.288V-25.755z"/>
	<path display="inline" d="M66.086-22.339c-0.256,0.042-0.525,0.064-0.808,0.064c-0.485,0-0.824-0.084-1.017-0.252
		c-0.191-0.168-0.287-0.487-0.287-0.956v-2.272H63.11v-0.472h0.864v-1.2h0.728v1.2h1.384v0.472h-1.384v2.312
		c0,0.277,0.054,0.462,0.16,0.556c0.106,0.094,0.323,0.14,0.647,0.14c0.086,0,0.277-0.021,0.576-0.064V-22.339z"/>
	<path display="inline" d="M72.543-26.227l-1.273,3.872h-0.855l-0.936-3.128l-0.92,3.128h-0.856l-1.304-3.872h0.792l0.944,3.184
		h0.047l0.912-3.184h0.809l0.943,3.184h0.049l0.912-3.184H72.543z"/>
	<path display="inline" d="M76.374-22.355h-0.696v-0.368c-0.059,0.299-0.447,0.448-1.168,0.448c-0.533,0-0.902-0.082-1.107-0.244
		c-0.206-0.163-0.309-0.492-0.309-0.988c0-0.432,0.096-0.729,0.288-0.892s0.563-0.244,1.112-0.244h1.16v-0.616
		c0-0.213-0.066-0.357-0.196-0.432c-0.131-0.075-0.378-0.112-0.74-0.112c-0.395,0-0.837,0.032-1.328,0.096v-0.528
		c0.528-0.048,1.005-0.072,1.433-0.072c0.65,0,1.072,0.079,1.264,0.236s0.288,0.484,0.288,0.98V-22.355z M75.654-23.139v-1.056
		h-1.112c-0.331,0-0.538,0.042-0.62,0.128c-0.083,0.085-0.124,0.28-0.124,0.584c0,0.272,0.044,0.463,0.132,0.572
		c0.088,0.109,0.273,0.164,0.557,0.164h0.144c0.139,0,0.255-0.002,0.349-0.008c0.093-0.005,0.197-0.02,0.315-0.044
		c0.117-0.024,0.206-0.064,0.269-0.12C75.623-22.975,75.654-23.048,75.654-23.139z"/>
	<path display="inline" d="M79.766-25.691h-0.4c-0.33,0-0.574,0.042-0.731,0.128s-0.235,0.246-0.235,0.48v2.728h-0.721v-3.872h0.68
		v0.632c0-0.187,0.116-0.352,0.348-0.496c0.232-0.144,0.469-0.216,0.709-0.216h0.352V-25.691z"/>
	<path display="inline" d="M83.727-24.131h-2.601v0.584c0,0.272,0.097,0.465,0.288,0.58s0.477,0.172,0.855,0.172
		c0.369,0,0.803-0.064,1.305-0.192v0.552c-0.48,0.107-0.947,0.16-1.4,0.16c-1.184,0-1.775-0.395-1.775-1.184v-1.528
		c0-0.475,0.136-0.813,0.408-1.016c0.271-0.203,0.706-0.304,1.303-0.304c0.561,0,0.97,0.098,1.229,0.292
		c0.259,0.195,0.389,0.538,0.389,1.028V-24.131z M83.006-24.603v-0.608c0-0.235-0.072-0.396-0.216-0.484
		c-0.144-0.088-0.384-0.132-0.72-0.132c-0.32,0-0.558,0.043-0.713,0.128c-0.154,0.085-0.231,0.248-0.231,0.488v0.608H83.006z"/>
	<path display="inline" d="M90.39-22.355h-3.568v-5.192h3.488v0.544h-2.712v1.696h2.447v0.544h-2.447v1.864h2.792V-22.355z"/>
	<path display="inline" d="M94.805-22.355h-0.719v-2.8c0-0.096-0.009-0.176-0.025-0.24c-0.016-0.064-0.049-0.129-0.1-0.196
		c-0.051-0.067-0.136-0.117-0.256-0.152c-0.119-0.035-0.271-0.052-0.451-0.052c-0.422,0-0.705,0.045-0.849,0.136
		c-0.144,0.091-0.216,0.259-0.216,0.504v2.8h-0.721v-3.872h0.721v0.472c0.074-0.368,0.498-0.552,1.271-0.552
		c0.512,0,0.864,0.092,1.057,0.276c0.191,0.184,0.287,0.462,0.287,0.836V-22.355z"/>
	<path display="inline" d="M99.414-26.227v4.24c0,0.549-0.154,0.918-0.461,1.108c-0.307,0.189-0.767,0.284-1.38,0.284
		c-0.55,0-0.995-0.029-1.336-0.088v-0.512c0.613,0.075,1.08,0.112,1.399,0.112c0.369,0,0.637-0.059,0.805-0.176
		c0.168-0.118,0.252-0.312,0.252-0.584v-0.928c-0.011,0.181-0.135,0.31-0.372,0.384c-0.237,0.075-0.508,0.112-0.812,0.112
		c-0.598,0-1.004-0.088-1.221-0.264c-0.216-0.176-0.324-0.48-0.324-0.912v-1.576c0-0.459,0.125-0.787,0.373-0.984
		s0.654-0.296,1.219-0.296c0.673,0,1.067,0.152,1.185,0.456v-0.376H99.414z M98.693-23.403v-1.752c0-0.251-0.068-0.423-0.204-0.516
		s-0.417-0.14-0.844-0.14c-0.4,0-0.661,0.045-0.784,0.136c-0.123,0.09-0.184,0.264-0.184,0.52v1.752
		c0,0.267,0.064,0.441,0.195,0.524s0.394,0.124,0.788,0.124c0.362,0,0.626-0.044,0.788-0.132
		C98.611-22.975,98.693-23.147,98.693-23.403z"/>
	<path display="inline" d="M101.438-26.875h-0.721v-0.752h0.721V-26.875z M101.438-22.355h-0.721v-3.872h0.721V-22.355z"/>
	<path display="inline" d="M106.076-22.355h-0.719v-2.8c0-0.096-0.009-0.176-0.025-0.24c-0.016-0.064-0.049-0.129-0.1-0.196
		c-0.051-0.067-0.136-0.117-0.256-0.152c-0.119-0.035-0.271-0.052-0.451-0.052c-0.422,0-0.705,0.045-0.849,0.136
		c-0.144,0.091-0.216,0.259-0.216,0.504v2.8h-0.721v-3.872h0.721v0.472c0.074-0.368,0.498-0.552,1.271-0.552
		c0.512,0,0.864,0.092,1.057,0.276c0.191,0.184,0.287,0.462,0.287,0.836V-22.355z"/>
	<path display="inline" d="M110.717-22.355h-0.72v-2.8c0-0.096-0.009-0.176-0.024-0.24s-0.049-0.129-0.1-0.196
		c-0.051-0.067-0.137-0.117-0.256-0.152c-0.12-0.035-0.271-0.052-0.452-0.052c-0.421,0-0.704,0.045-0.849,0.136
		c-0.144,0.091-0.215,0.259-0.215,0.504v2.8h-0.721v-3.872h0.721v0.472c0.074-0.368,0.498-0.552,1.271-0.552
		c0.512,0,0.863,0.092,1.056,0.276c0.192,0.184,0.288,0.462,0.288,0.836V-22.355z"/>
	<path display="inline" d="M115.205-24.131h-2.601v0.584c0,0.272,0.097,0.465,0.288,0.58s0.477,0.172,0.855,0.172
		c0.369,0,0.803-0.064,1.305-0.192v0.552c-0.48,0.107-0.947,0.16-1.4,0.16c-1.184,0-1.775-0.395-1.775-1.184v-1.528
		c0-0.475,0.136-0.813,0.408-1.016c0.271-0.203,0.706-0.304,1.303-0.304c0.561,0,0.97,0.098,1.229,0.292
		c0.259,0.195,0.389,0.538,0.389,1.028V-24.131z M114.484-24.603v-0.608c0-0.235-0.072-0.396-0.216-0.484
		c-0.144-0.088-0.384-0.132-0.72-0.132c-0.32,0-0.558,0.043-0.713,0.128c-0.154,0.085-0.231,0.248-0.231,0.488v0.608H114.484z"/>
	<path display="inline" d="M118.444-25.691h-0.399c-0.331,0-0.575,0.042-0.732,0.128s-0.236,0.246-0.236,0.48v2.728h-0.72v-3.872
		h0.681v0.632c0-0.187,0.115-0.352,0.348-0.496c0.231-0.144,0.468-0.216,0.707-0.216h0.353V-25.691z"/>
	<path display="inline" d="M119.941-26.875h-0.721v-0.752h0.721V-26.875z M119.941-22.355h-0.721v-3.872h0.721V-22.355z"/>
	<path display="inline" d="M124.58-22.355h-0.72v-2.8c0-0.096-0.009-0.176-0.024-0.24s-0.049-0.129-0.1-0.196
		c-0.051-0.067-0.137-0.117-0.256-0.152c-0.12-0.035-0.271-0.052-0.452-0.052c-0.421,0-0.704,0.045-0.849,0.136
		c-0.144,0.091-0.215,0.259-0.215,0.504v2.8h-0.721v-3.872h0.721v0.472c0.074-0.368,0.498-0.552,1.271-0.552
		c0.512,0,0.863,0.092,1.056,0.276c0.192,0.184,0.288,0.462,0.288,0.836V-22.355z"/>
	<path display="inline" d="M129.188-26.227v4.24c0,0.549-0.153,0.918-0.46,1.108c-0.307,0.189-0.768,0.284-1.381,0.284
		c-0.549,0-0.994-0.029-1.336-0.088v-0.512c0.613,0.075,1.08,0.112,1.4,0.112c0.368,0,0.637-0.059,0.805-0.176
		c0.168-0.118,0.252-0.312,0.252-0.584v-0.928c-0.012,0.181-0.135,0.31-0.373,0.384c-0.236,0.075-0.508,0.112-0.812,0.112
		c-0.597,0-1.004-0.088-1.22-0.264c-0.217-0.176-0.324-0.48-0.324-0.912v-1.576c0-0.459,0.124-0.787,0.372-0.984
		s0.655-0.296,1.22-0.296c0.672,0,1.066,0.152,1.184,0.456v-0.376H129.188z M128.469-23.403v-1.752c0-0.251-0.068-0.423-0.205-0.516
		c-0.135-0.093-0.417-0.14-0.844-0.14c-0.4,0-0.661,0.045-0.783,0.136c-0.123,0.09-0.185,0.264-0.185,0.52v1.752
		c0,0.267,0.065,0.441,0.196,0.524s0.393,0.124,0.787,0.124c0.363,0,0.626-0.044,0.789-0.132
		C128.387-22.975,128.469-23.147,128.469-23.403z"/>
	<path display="inline" d="M136.123-24.027c0,0.363-0.055,0.661-0.168,0.896c0.214,0.203,0.374,0.304,0.48,0.304h0.208v0.472h-0.512
		c-0.182,0-0.376-0.091-0.584-0.272c-0.336,0.235-0.856,0.352-1.56,0.352c-1.164,0-1.744-0.307-1.744-0.92v-0.872
		c0-0.405,0.244-0.717,0.735-0.936l0.376-0.176l-0.313-0.368c-0.164-0.192-0.247-0.376-0.247-0.552v-0.776
		c0-0.507,0.442-0.76,1.327-0.76c0.357,0,0.721,0.04,1.089,0.12v0.584c-0.4-0.133-0.769-0.2-1.104-0.2
		c-0.229,0-0.392,0.024-0.488,0.072c-0.096,0.048-0.144,0.131-0.144,0.248v0.592c0,0.08,0.026,0.152,0.08,0.216l1.937,2.344
		c0.016-0.096,0.023-0.208,0.023-0.336v-0.768h0.607V-24.027z M133.644-24.835l-0.28,0.12c-0.111,0.053-0.201,0.135-0.268,0.244
		c-0.066,0.109-0.1,0.22-0.1,0.332v0.976c0,0.262,0.349,0.392,1.047,0.392h0.089c0.517,0,0.869-0.075,1.056-0.224L133.644-24.835z"
		/>
	<path display="inline" d="M140.252-22.355h-0.776v-5.192h0.776V-22.355z"/>
	<path display="inline" d="M145.468-27.003h-1.752v4.648h-0.784v-4.648h-1.76v-0.544h4.296V-27.003z"/>
	<path display="inline" d="M151.764-22.427c-0.465,0.101-0.949,0.152-1.457,0.152c-1.455,0-2.184-0.469-2.184-1.408v-2.464
		c0-0.992,0.729-1.488,2.184-1.488c0.486,0,0.961,0.05,1.425,0.152v0.576c-0.513-0.128-0.981-0.192-1.408-0.192
		c-0.202,0-0.382,0.012-0.536,0.036s-0.307,0.067-0.455,0.128c-0.15,0.062-0.265,0.157-0.345,0.288s-0.12,0.295-0.12,0.492v2.432
		c0,0.598,0.496,0.896,1.488,0.896c0.426,0,0.896-0.064,1.408-0.192V-22.427z"/>
	<path display="inline" d="M156.227-24.923v1.344c0,0.24-0.029,0.443-0.088,0.608c-0.059,0.166-0.133,0.293-0.224,0.384
		s-0.22,0.16-0.388,0.208s-0.328,0.077-0.48,0.088s-0.354,0.016-0.604,0.016c-0.32,0-0.569-0.011-0.748-0.032
		c-0.179-0.021-0.357-0.073-0.536-0.156s-0.307-0.215-0.384-0.396c-0.078-0.181-0.116-0.421-0.116-0.72v-1.344
		c0-0.256,0.03-0.472,0.092-0.648c0.062-0.176,0.136-0.312,0.224-0.408s0.218-0.169,0.389-0.22c0.17-0.05,0.329-0.081,0.477-0.092
		c0.146-0.011,0.348-0.016,0.604-0.016s0.457,0.005,0.604,0.016s0.306,0.042,0.477,0.092c0.17,0.051,0.3,0.124,0.388,0.22
		s0.163,0.232,0.224,0.408C156.196-25.395,156.227-25.179,156.227-24.923z M155.491-23.475v-1.568c0-0.357-0.071-0.579-0.216-0.664
		c-0.145-0.085-0.422-0.128-0.832-0.128c-0.411,0-0.688,0.043-0.832,0.128c-0.145,0.085-0.217,0.307-0.217,0.664v1.568
		c0,0.171,0.02,0.307,0.057,0.408c0.037,0.101,0.106,0.175,0.208,0.22c0.101,0.045,0.205,0.074,0.312,0.084
		c0.107,0.011,0.265,0.016,0.473,0.016s0.365-0.005,0.472-0.016c0.106-0.01,0.211-0.039,0.312-0.084
		c0.102-0.045,0.172-0.119,0.209-0.22C155.473-23.168,155.491-23.304,155.491-23.475z"/>
	<path display="inline" d="M160.738-22.355h-0.719v-2.8c0-0.096-0.009-0.176-0.025-0.24c-0.016-0.064-0.049-0.129-0.1-0.196
		c-0.051-0.067-0.136-0.117-0.256-0.152c-0.119-0.035-0.271-0.052-0.451-0.052c-0.422,0-0.705,0.045-0.849,0.136
		c-0.144,0.091-0.216,0.259-0.216,0.504v2.8h-0.721v-3.872h0.721v0.472c0.074-0.368,0.498-0.552,1.271-0.552
		c0.512,0,0.864,0.092,1.057,0.276c0.191,0.184,0.287,0.462,0.287,0.836V-22.355z"/>
	<path display="inline" d="M164.915-23.715v0.336c0,0.416-0.146,0.704-0.437,0.864c-0.291,0.16-0.707,0.24-1.252,0.24
		c-0.416,0-0.858-0.032-1.328-0.096v-0.552c0.641,0.101,1.088,0.152,1.345,0.152c0.319,0,0.56-0.031,0.72-0.092
		c0.16-0.062,0.24-0.188,0.24-0.38v-0.392c0-0.166-0.057-0.283-0.168-0.352c-0.112-0.069-0.293-0.104-0.545-0.104h-0.439
		c-0.405,0-0.712-0.084-0.92-0.252s-0.313-0.399-0.313-0.692v-0.36c0-0.608,0.576-0.912,1.729-0.912c0.128,0,0.52,0.021,1.176,0.064
		v0.52c-0.459-0.074-0.861-0.112-1.207-0.112c-0.385,0-0.645,0.038-0.781,0.112c-0.135,0.075-0.203,0.2-0.203,0.376v0.328
		c0,0.261,0.236,0.392,0.712,0.392h0.448C164.507-24.627,164.915-24.323,164.915-23.715z"/>
	<path display="inline" d="M169.299-22.355h-0.72v-0.472c-0.075,0.368-0.499,0.552-1.272,0.552c-0.512,0-0.863-0.092-1.056-0.276
		c-0.192-0.184-0.288-0.463-0.288-0.836v-2.84h0.721v2.8c0,0.096,0.008,0.176,0.023,0.24s0.049,0.129,0.1,0.196
		c0.051,0.067,0.137,0.118,0.256,0.152c0.121,0.035,0.271,0.052,0.452,0.052c0.4,0,0.677-0.037,0.832-0.112s0.232-0.21,0.232-0.408
		v-2.92h0.72V-22.355z"/>
	<path display="inline" d="M171.322-22.355h-0.72v-5.6h0.72V-22.355z"/>
	<path display="inline" d="M175.059-22.339c-0.256,0.042-0.525,0.064-0.809,0.064c-0.484,0-0.824-0.084-1.016-0.252
		s-0.288-0.487-0.288-0.956v-2.272h-0.864v-0.472h0.864v-1.2h0.728v1.2h1.385v0.472h-1.385v2.312c0,0.277,0.054,0.462,0.16,0.556
		c0.107,0.094,0.323,0.14,0.648,0.14c0.086,0,0.277-0.021,0.576-0.064V-22.339z"/>
	<path display="inline" d="M176.619-26.875h-0.721v-0.752h0.721V-26.875z M176.619-22.355h-0.721v-3.872h0.721V-22.355z"/>
	<path display="inline" d="M181.258-22.355h-0.72v-2.8c0-0.096-0.009-0.176-0.024-0.24s-0.049-0.129-0.1-0.196
		c-0.051-0.067-0.137-0.117-0.256-0.152c-0.12-0.035-0.271-0.052-0.452-0.052c-0.421,0-0.704,0.045-0.849,0.136
		c-0.144,0.091-0.215,0.259-0.215,0.504v2.8h-0.721v-3.872h0.721v0.472c0.074-0.368,0.498-0.552,1.271-0.552
		c0.512,0,0.863,0.092,1.056,0.276c0.192,0.184,0.288,0.462,0.288,0.836V-22.355z"/>
	<path display="inline" d="M185.866-26.227v4.24c0,0.549-0.153,0.918-0.46,1.108c-0.307,0.189-0.768,0.284-1.381,0.284
		c-0.549,0-0.994-0.029-1.336-0.088v-0.512c0.613,0.075,1.08,0.112,1.4,0.112c0.368,0,0.637-0.059,0.805-0.176
		c0.168-0.118,0.252-0.312,0.252-0.584v-0.928c-0.012,0.181-0.135,0.31-0.373,0.384c-0.236,0.075-0.508,0.112-0.812,0.112
		c-0.597,0-1.004-0.088-1.22-0.264c-0.217-0.176-0.324-0.48-0.324-0.912v-1.576c0-0.459,0.124-0.787,0.372-0.984
		s0.655-0.296,1.22-0.296c0.672,0,1.066,0.152,1.184,0.456v-0.376H185.866z M185.146-23.403v-1.752c0-0.251-0.068-0.423-0.205-0.516
		c-0.135-0.093-0.417-0.14-0.844-0.14c-0.4,0-0.661,0.045-0.783,0.136c-0.123,0.09-0.185,0.264-0.185,0.52v1.752
		c0,0.267,0.065,0.441,0.196,0.524s0.393,0.124,0.787,0.124c0.363,0,0.626-0.044,0.789-0.132
		C185.064-22.975,185.146-23.147,185.146-23.403z"/>
</g>
<g display="none">
	<path display="inline" fill="#FFFFFF" d="M21.628-32.279h-4.29v-1.32c-0.32,0.58-0.78,0.995-1.38,1.245
		c-0.6,0.25-1.7,0.375-3.3,0.375c-1.96,0-3.26-0.3-3.9-0.9s-0.96-1.85-0.96-3.75c0-1.72,0.33-2.915,0.99-3.585
		c0.66-0.67,1.84-1.005,3.54-1.005h4.92v-0.99c0-0.88-0.206-1.465-0.615-1.755c-0.41-0.29-1.275-0.435-2.595-0.435
		c-1.24,0-2.94,0.12-5.1,0.36v-2.76c1.66-0.2,3.51-0.3,5.55-0.3c2.68,0,4.54,0.325,5.58,0.975c1.04,0.65,1.56,1.935,1.56,3.855
		V-32.279z M17.249-36v-2.82h-3c-0.96,0-1.56,0.11-1.8,0.33c-0.24,0.22-0.36,0.81-0.36,1.77c0,0.94,0.125,1.51,0.375,1.71
		c0.25,0.2,0.885,0.3,1.905,0.3c0.5,0,0.87-0.004,1.11-0.015c0.24-0.01,0.5-0.035,0.78-0.075c0.28-0.04,0.475-0.105,0.585-0.195
		c0.11-0.09,0.205-0.215,0.285-0.375C17.208-35.529,17.249-35.739,17.249-36z"/>
	<path display="inline" fill="#FFFFFF" d="M39.868-46.799v15.3c0,2.12-0.726,3.62-2.175,4.5c-1.45,0.88-3.565,1.32-6.346,1.32
		c-2.279,0-4.03-0.07-5.25-0.21v-2.94c1.96,0.259,3.71,0.39,5.25,0.39c1.461,0,2.516-0.235,3.166-0.705
		c0.649-0.47,0.975-1.275,0.975-2.415v-2.34c-0.5,0.74-1.04,1.245-1.62,1.515s-1.59,0.405-3.03,0.405c-2.08,0-3.565-0.31-4.455-0.93
		c-0.89-0.62-1.335-1.77-1.335-3.45v-5.67c0-1.96,0.41-3.295,1.23-4.005c0.82-0.71,2.41-1.065,4.771-1.065
		c1.039,0,1.84,0.065,2.399,0.195c0.56,0.13,0.979,0.32,1.261,0.57c0.279,0.25,0.589,0.645,0.93,1.185v-1.65H39.868z M35.488-36.629
		v-5.85c0-0.78-0.2-1.294-0.6-1.545c-0.4-0.25-1.311-0.375-2.73-0.375c-1.18,0-1.93,0.146-2.25,0.435
		c-0.32,0.29-0.48,0.835-0.48,1.635v5.55c0,0.86,0.16,1.42,0.48,1.68c0.32,0.26,1.15,0.39,2.49,0.39c1.279,0,2.115-0.14,2.505-0.42
		C35.293-35.409,35.488-35.909,35.488-36.629z"/>
</g>
<path d="M197.383,218.316H37.464C16.776,218.316,0,202.727,0,183.491V34.827C0,15.595,16.776,0,37.464,0h159.919
	c20.701,0,37.467,15.595,37.467,34.827v148.664C234.85,202.727,218.084,218.316,197.383,218.316"/>
<g>
	<path d="M329.593,116.298v9.368c0,3.686-0.691,6.86-2.073,9.521c-1.383,2.664-3.125,4.737-5.222,6.221
		c-2.1,1.485-4.838,2.637-8.217,3.455s-6.631,1.356-9.752,1.612c-3.125,0.255-6.784,0.385-10.981,0.385
		c-8.089,0-17.868-0.769-29.334-2.304v-14.897c14.23,2.15,24.112,3.225,29.642,3.225c4.4,0,7.806-0.434,10.213-1.305
		c2.404-0.869,3.609-2.585,3.609-5.146v-4.607c0-2.354-0.668-4.12-1.997-5.298c-1.332-1.176-4.199-1.767-8.601-1.767h-9.676
		c-7.781,0-13.848-1.56-18.199-4.684c-4.353-3.122-6.526-7.703-6.526-13.746v-9.061c0-6.758,3.225-11.416,9.675-13.977
		c6.451-2.558,15.563-3.839,27.338-3.839c4.914,0,13.719,0.461,26.415,1.382v14.283c-15.972-1.229-24.982-1.843-27.029-1.843
		c-6.247,0-10.189,0.437-11.826,1.305c-1.639,0.871-2.457,2.534-2.457,4.992v3.992c0,1.229,0.639,2.357,1.92,3.379
		c1.278,1.025,3.249,1.536,5.912,1.536h9.829C320.479,98.482,329.593,104.422,329.593,116.298z"/>
	<path d="M419.589,97.868v21.962c0,4.813-0.768,8.934-2.304,12.363c-1.536,3.432-3.432,6.093-5.683,7.986
		c-2.253,1.896-5.197,3.354-8.831,4.377c-3.635,1.021-6.964,1.663-9.982,1.919c-3.021,0.255-6.681,0.385-10.98,0.385
		c-4.301,0-7.963-0.13-10.981-0.385c-3.021-0.256-6.35-0.897-9.982-1.919c-3.636-1.022-6.58-2.481-8.831-4.377
		c-2.253-1.894-4.146-4.555-5.683-7.986c-1.535-3.43-2.304-7.55-2.304-12.363V97.868c0-5.118,0.792-9.496,2.381-13.131
		c1.586-3.634,3.532-6.424,5.836-8.37c2.304-1.944,5.299-3.456,8.984-4.531c3.686-1.074,6.988-1.739,9.906-1.996
		c2.918-0.255,6.474-0.384,10.674-0.384c4.196,0,7.756,0.129,10.674,0.384c2.918,0.257,6.22,0.922,9.905,1.996
		c3.687,1.075,6.681,2.587,8.984,4.531c2.304,1.946,4.248,4.736,5.836,8.37C418.795,88.372,419.589,92.75,419.589,97.868z
		 M397.166,122.44V94.336c0-3.993-1.024-6.835-3.071-8.523c-2.05-1.689-6.144-2.534-12.286-2.534c-6.144,0-10.24,0.845-12.287,2.534
		c-2.049,1.688-3.071,4.53-3.071,8.523v28.104c0,3.893,0.998,6.604,2.995,8.14c1.996,1.536,6.116,2.304,12.363,2.304
		c6.243,0,10.366-0.768,12.363-2.304C396.168,129.045,397.166,126.333,397.166,122.44z"/>
	<path d="M460.134,145.324h-22.423V37.818h22.423V145.324z"/>
	<path d="M552.128,145.324h-22.115v-9.062c-1.742,7.065-9.676,10.598-23.805,10.598c-9.829,0-16.587-1.767-20.272-5.299
		c-3.687-3.532-5.529-8.881-5.529-16.049V70.991h22.423v51.449c0,4.097,0.69,6.861,2.073,8.294c1.382,1.435,4.684,2.149,9.906,2.149
		c6.45,0,10.544-0.69,12.286-2.073c1.739-1.382,2.61-4.17,2.61-8.37V70.991h22.423V145.324z"/>
	<path d="M621.391,146.092c-4.301,0.512-8.447,0.769-12.44,0.769c-3.481,0-6.526-0.13-9.138-0.385
		c-2.611-0.256-5.325-0.87-8.14-1.843c-2.817-0.972-5.121-2.251-6.911-3.839c-1.793-1.587-3.278-3.84-4.454-6.758
		c-1.178-2.918-1.766-6.374-1.766-10.366V84.813h-15.051V70.991h15.051V49.49h22.422v21.501h20.427v13.822h-20.427v35.017
		c0,5.121,0.769,8.576,2.304,10.366c1.536,1.793,4.915,2.688,10.137,2.688c1.74,0,4.401-0.254,7.986-0.768V146.092z"/>
	<path d="M657.328,62.237h-22.423V44.115h22.423V62.237z M657.328,145.324h-22.423V70.991h22.423V145.324z"/>
	<path d="M751.012,97.868v21.962c0,4.813-0.768,8.934-2.304,12.363c-1.536,3.432-3.432,6.093-5.683,7.986
		c-2.253,1.896-5.197,3.354-8.831,4.377c-3.635,1.021-6.964,1.663-9.982,1.919c-3.021,0.255-6.681,0.385-10.98,0.385
		c-4.301,0-7.963-0.13-10.981-0.385c-3.021-0.256-6.35-0.897-9.982-1.919c-3.636-1.022-6.58-2.481-8.831-4.377
		c-2.253-1.894-4.146-4.555-5.683-7.986c-1.535-3.43-2.304-7.55-2.304-12.363V97.868c0-5.118,0.792-9.496,2.381-13.131
		c1.586-3.634,3.532-6.424,5.836-8.37c2.304-1.944,5.299-3.456,8.984-4.531c3.686-1.074,6.988-1.739,9.906-1.996
		c2.918-0.255,6.474-0.384,10.674-0.384c4.196,0,7.756,0.129,10.674,0.384c2.918,0.257,6.22,0.922,9.905,1.996
		c3.687,1.075,6.681,2.587,8.984,4.531c2.304,1.946,4.248,4.736,5.836,8.37C750.218,88.372,751.012,92.75,751.012,97.868z
		 M728.589,122.44V94.336c0-3.993-1.024-6.835-3.071-8.523c-2.05-1.689-6.144-2.534-12.286-2.534c-6.144,0-10.24,0.845-12.287,2.534
		c-2.049,1.688-3.071,4.53-3.071,8.523v28.104c0,3.893,0.998,6.604,2.995,8.14c1.996,1.536,6.116,2.304,12.363,2.304
		c6.243,0,10.366-0.768,12.363-2.304C727.591,129.045,728.589,126.333,728.589,122.44z"/>
	<path d="M840.241,145.324h-22.423V93.722c0-4.094-0.69-6.858-2.073-8.294c-1.382-1.433-4.684-2.149-9.905-2.149
		c-6.451,0-10.547,0.69-12.287,2.073c-1.742,1.382-2.61,4.173-2.61,8.37v51.603H768.52V70.991h22.115v9.062
		c1.74-7.064,9.676-10.597,23.805-10.597c9.829,0,16.587,1.766,20.272,5.298c3.687,3.533,5.529,8.884,5.529,16.05V145.324z"/>
	<path d="M923.94,116.298v9.368c0,3.686-0.691,6.86-2.073,9.521c-1.383,2.664-3.125,4.737-5.222,6.221
		c-2.1,1.485-4.838,2.637-8.217,3.455s-6.631,1.356-9.752,1.612c-3.125,0.255-6.784,0.385-10.981,0.385
		c-8.089,0-17.868-0.769-29.334-2.304v-14.897c14.23,2.15,24.112,3.225,29.642,3.225c4.4,0,7.806-0.434,10.213-1.305
		c2.404-0.869,3.609-2.585,3.609-5.146v-4.607c0-2.354-0.668-4.12-1.997-5.298c-1.332-1.176-4.199-1.767-8.601-1.767h-9.676
		c-7.781,0-13.848-1.56-18.199-4.684c-4.353-3.122-6.526-7.703-6.526-13.746v-9.061c0-6.758,3.225-11.416,9.675-13.977
		c6.451-2.558,15.563-3.839,27.338-3.839c4.914,0,13.719,0.461,26.415,1.382v14.283c-15.972-1.229-24.982-1.843-27.029-1.843
		c-6.247,0-10.189,0.437-11.826,1.305c-1.639,0.871-2.457,2.534-2.457,4.992v3.992c0,1.229,0.639,2.357,1.92,3.379
		c1.278,1.025,3.249,1.536,5.912,1.536h9.829C914.826,98.482,923.94,104.422,923.94,116.298z"/>
</g>
<g>
	<path d="M280.734,187.125v1.925c0,2.84-0.806,4.799-2.416,5.877c-1.611,1.079-4.123,1.617-7.536,1.617
		c-2.185,0-4.888-0.219-8.109-0.655v-3.317c3.222,0.684,6.007,1.024,8.355,1.024c1.884,0,3.323-0.211,4.32-0.635
		c0.996-0.423,1.495-1.276,1.495-2.56v-3.44c0-1.119-0.321-1.918-0.963-2.396s-1.795-0.717-3.46-0.717h-3.113
		c-2.676,0-4.539-0.539-5.59-1.618c-1.052-1.078-1.577-2.668-1.577-4.771v-2.129c0-2.103,0.744-3.658,2.232-4.669
		c1.487-1.01,4.225-1.516,8.211-1.516c1.911,0,4.191,0.15,6.84,0.45v2.99c-3.031-0.464-5.406-0.696-7.126-0.696
		c-2.539,0-4.226,0.253-5.059,0.758c-0.833,0.506-1.249,1.358-1.249,2.56v3.03c0,0.929,0.328,1.604,0.983,2.027
		c0.655,0.424,1.815,0.635,3.481,0.635h3.194c2.757,0,4.628,0.499,5.61,1.495C280.243,183.392,280.734,184.968,280.734,187.125z"/>
	<path d="M303.136,182.988v6.881c0,1.229-0.15,2.267-0.45,3.112c-0.301,0.847-0.683,1.502-1.146,1.966
		c-0.465,0.465-1.126,0.819-1.986,1.064c-0.86,0.246-1.68,0.396-2.457,0.451c-0.778,0.054-1.81,0.081-3.093,0.081
		c-1.638,0-2.914-0.055-3.829-0.163c-0.915-0.109-1.829-0.375-2.744-0.799c-0.915-0.423-1.57-1.099-1.966-2.027
		c-0.396-0.928-0.594-2.156-0.594-3.686v-6.881c0-1.311,0.157-2.416,0.472-3.317c0.313-0.901,0.695-1.597,1.146-2.089
		c0.45-0.491,1.112-0.866,1.986-1.126c0.873-0.259,1.686-0.416,2.437-0.471s1.781-0.082,3.092-0.082s2.341,0.027,3.093,0.082
		c0.75,0.055,1.563,0.212,2.437,0.471c0.873,0.26,1.536,0.635,1.986,1.126c0.45,0.492,0.832,1.188,1.146,2.089
		C302.979,180.572,303.136,181.678,303.136,182.988z M299.368,190.401v-8.027c0-1.829-0.368-2.962-1.105-3.399
		c-0.737-0.437-2.157-0.655-4.26-0.655s-3.521,0.219-4.259,0.655c-0.737,0.438-1.106,1.57-1.106,3.399v8.027
		c0,0.874,0.096,1.57,0.287,2.089c0.19,0.519,0.546,0.895,1.064,1.126c0.519,0.232,1.051,0.375,1.598,0.43
		c0.546,0.056,1.352,0.082,2.416,0.082c1.065,0,1.87-0.026,2.417-0.082c0.546-0.055,1.078-0.197,1.597-0.43
		c0.519-0.231,0.874-0.607,1.065-1.126C299.272,191.972,299.368,191.275,299.368,190.401z"/>
	<path d="M320.337,178.729h-6.594v17.405h-3.687v-17.405h-4.546v-2.417h4.546v-3.194c0-2.238,0.628-3.809,1.885-4.71
		c1.255-0.9,3.085-1.352,5.487-1.352c1.065,0,2.171,0.068,3.317,0.205v2.416c-0.956-0.136-2.021-0.204-3.194-0.204
		c-1.338,0-2.308,0.232-2.908,0.696s-0.9,1.365-0.9,2.703v3.439h6.594V178.729z"/>
	<path d="M335.735,196.217c-1.311,0.218-2.689,0.327-4.137,0.327c-2.484,0-4.218-0.43-5.201-1.29
		c-0.982-0.859-1.474-2.491-1.474-4.894v-11.631H320.5v-2.417h4.424v-6.143h3.727v6.143h7.085v2.417h-7.085v11.835
		c0,1.421,0.272,2.369,0.819,2.847c0.546,0.479,1.651,0.717,3.317,0.717c0.437,0,1.419-0.108,2.948-0.327V196.217z"/>
	<path d="M367.926,176.313l-6.512,19.822h-4.382l-4.792-16.014l-4.71,16.014h-4.382l-6.676-19.822h4.055l4.833,16.3h0.245
		l4.669-16.3h4.137l4.832,16.3h0.246l4.669-16.3H367.926z"/>
	<path d="M386.682,196.135h-3.563v-1.884c-0.301,1.529-2.294,2.293-5.979,2.293c-2.73,0-4.622-0.416-5.673-1.249
		c-1.051-0.832-1.576-2.519-1.576-5.058c0-2.212,0.491-3.733,1.475-4.566c0.982-0.833,2.88-1.249,5.692-1.249h5.938v-3.153
		c0-1.092-0.335-1.829-1.004-2.212c-0.669-0.382-1.932-0.573-3.788-0.573c-2.021,0-4.286,0.164-6.798,0.491v-2.703
		c2.702-0.245,5.146-0.368,7.33-0.368c3.331,0,5.488,0.403,6.472,1.208c0.982,0.806,1.474,2.478,1.474,5.017V196.135z
		 M382.996,192.121v-5.406h-5.692c-1.693,0-2.751,0.219-3.175,0.655c-0.423,0.438-0.635,1.434-0.635,2.99
		c0,1.393,0.226,2.369,0.676,2.928c0.451,0.561,1.399,0.84,2.847,0.84h0.737c0.71,0,1.304-0.014,1.781-0.041
		c0.478-0.026,1.017-0.103,1.618-0.226c0.6-0.122,1.058-0.327,1.372-0.614C382.839,192.961,382.996,192.586,382.996,192.121z"/>
	<path d="M403.187,179.057h-2.048c-1.693,0-2.942,0.219-3.747,0.655c-0.806,0.438-1.208,1.256-1.208,2.457v13.966h-3.687v-19.822
		h3.481v3.235c0-0.955,0.594-1.802,1.781-2.539s2.396-1.105,3.625-1.105h1.802V179.057z"/>
	<path d="M422.599,187.043h-13.31v2.989c0,1.393,0.491,2.383,1.474,2.97c0.983,0.587,2.443,0.88,4.383,0.88
		c1.884,0,4.108-0.327,6.675-0.982v2.826c-2.457,0.546-4.847,0.818-7.167,0.818c-6.061,0-9.092-2.02-9.092-6.061v-7.822
		c0-2.431,0.696-4.164,2.089-5.202c1.393-1.037,3.617-1.556,6.676-1.556c2.866,0,4.962,0.498,6.286,1.495s1.986,2.751,1.986,5.263
		V187.043z M418.913,184.627v-3.113c0-1.201-0.369-2.027-1.105-2.478c-0.737-0.45-1.966-0.676-3.687-0.676
		c-1.638,0-2.854,0.219-3.645,0.655c-0.792,0.438-1.188,1.27-1.188,2.498v3.113H418.913z"/>
	<path d="M454.993,196.135h-18.266v-26.579h17.856v2.784H440.7v8.683h12.532v2.785H440.7v9.542h14.293V196.135z"/>
	<path d="M476.739,196.135h-3.686v-14.334c0-0.491-0.041-0.901-0.123-1.229c-0.082-0.328-0.253-0.662-0.512-1.004
		c-0.26-0.341-0.696-0.6-1.311-0.778c-0.614-0.177-1.387-0.266-2.314-0.266c-2.157,0-3.604,0.232-4.341,0.696
		c-0.737,0.465-1.105,1.324-1.105,2.58v14.334h-3.687v-19.822h3.687v2.417c0.382-1.885,2.552-2.826,6.512-2.826
		c2.621,0,4.423,0.471,5.405,1.413c0.983,0.941,1.475,2.369,1.475,4.279V196.135z"/>
	<path d="M499.469,176.313v21.706c0,2.812-0.785,4.703-2.354,5.672c-1.57,0.97-3.926,1.454-7.064,1.454
		c-2.813,0-5.093-0.15-6.84-0.45v-2.621c3.14,0.382,5.529,0.573,7.167,0.573c1.884,0,3.256-0.301,4.116-0.901s1.29-1.597,1.29-2.989
		v-4.751c-0.055,0.929-0.689,1.584-1.904,1.966c-1.216,0.382-2.601,0.573-4.157,0.573c-3.058,0-5.14-0.45-6.245-1.352
		c-1.106-0.9-1.659-2.457-1.659-4.668v-8.068c0-2.348,0.635-4.027,1.904-5.037s3.352-1.516,6.246-1.516
		c3.44,0,5.46,0.778,6.062,2.334v-1.925H499.469z M495.783,190.77v-8.969c0-1.283-0.349-2.164-1.044-2.642
		c-0.696-0.478-2.137-0.717-4.321-0.717c-2.048,0-3.386,0.232-4.014,0.696c-0.628,0.465-0.941,1.352-0.941,2.662v8.969
		c0,1.366,0.334,2.26,1.003,2.683c0.669,0.424,2.014,0.635,4.034,0.635c1.856,0,3.201-0.226,4.034-0.676
		C495.366,192.961,495.783,192.08,495.783,190.77z"/>
	<path d="M508.971,172.995h-3.687v-3.85h3.687V172.995z M508.971,196.135h-3.687v-19.822h3.687V196.135z"/>
	<path d="M531.862,196.135h-3.686v-14.334c0-0.491-0.041-0.901-0.123-1.229c-0.082-0.328-0.253-0.662-0.512-1.004
		c-0.26-0.341-0.696-0.6-1.311-0.778c-0.614-0.177-1.387-0.266-2.314-0.266c-2.157,0-3.604,0.232-4.341,0.696
		c-0.737,0.465-1.105,1.324-1.105,2.58v14.334h-3.687v-19.822h3.687v2.417c0.382-1.885,2.552-2.826,6.512-2.826
		c2.621,0,4.423,0.471,5.405,1.413c0.983,0.941,1.475,2.369,1.475,4.279V196.135z"/>
	<path d="M554.756,196.135h-3.686v-14.334c0-0.491-0.041-0.901-0.123-1.229c-0.082-0.328-0.253-0.662-0.512-1.004
		c-0.26-0.341-0.696-0.6-1.311-0.778c-0.614-0.177-1.387-0.266-2.314-0.266c-2.157,0-3.604,0.232-4.341,0.696
		c-0.737,0.465-1.105,1.324-1.105,2.58v14.334h-3.687v-19.822h3.687v2.417c0.382-1.885,2.552-2.826,6.512-2.826
		c2.621,0,4.423,0.471,5.405,1.413c0.983,0.941,1.475,2.369,1.475,4.279V196.135z"/>
	<path d="M576.871,187.043h-13.31v2.989c0,1.393,0.491,2.383,1.474,2.97c0.983,0.587,2.443,0.88,4.383,0.88
		c1.884,0,4.108-0.327,6.675-0.982v2.826c-2.457,0.546-4.847,0.818-7.167,0.818c-6.061,0-9.092-2.02-9.092-6.061v-7.822
		c0-2.431,0.696-4.164,2.089-5.202c1.393-1.037,3.617-1.556,6.676-1.556c2.866,0,4.962,0.498,6.286,1.495s1.986,2.751,1.986,5.263
		V187.043z M573.186,184.627v-3.113c0-1.201-0.369-2.027-1.105-2.478c-0.737-0.45-1.966-0.676-3.687-0.676
		c-1.638,0-2.854,0.219-3.645,0.655c-0.792,0.438-1.188,1.27-1.188,2.498v3.113H573.186z"/>
	<path d="M592.598,179.057h-2.048c-1.693,0-2.942,0.219-3.747,0.655c-0.806,0.438-1.208,1.256-1.208,2.457v13.966h-3.687v-19.822
		h3.481v3.235c0-0.955,0.594-1.802,1.781-2.539s2.396-1.105,3.625-1.105h1.802V179.057z"/>
	<path d="M599.396,172.995h-3.687v-3.85h3.687V172.995z M599.396,196.135h-3.687v-19.822h3.687V196.135z"/>
	<path d="M622.289,196.135h-3.686v-14.334c0-0.491-0.041-0.901-0.123-1.229c-0.082-0.328-0.253-0.662-0.512-1.004
		c-0.26-0.341-0.696-0.6-1.311-0.778c-0.614-0.177-1.387-0.266-2.314-0.266c-2.157,0-3.604,0.232-4.341,0.696
		c-0.737,0.465-1.105,1.324-1.105,2.58v14.334h-3.687v-19.822h3.687v2.417c0.382-1.885,2.552-2.826,6.512-2.826
		c2.621,0,4.423,0.471,5.405,1.413c0.983,0.941,1.475,2.369,1.475,4.279V196.135z"/>
	<path d="M645.019,176.313v21.706c0,2.812-0.785,4.703-2.354,5.672c-1.57,0.97-3.926,1.454-7.064,1.454
		c-2.813,0-5.093-0.15-6.84-0.45v-2.621c3.14,0.382,5.529,0.573,7.167,0.573c1.884,0,3.256-0.301,4.116-0.901s1.29-1.597,1.29-2.989
		v-4.751c-0.055,0.929-0.689,1.584-1.904,1.966c-1.216,0.382-2.601,0.573-4.157,0.573c-3.058,0-5.14-0.45-6.245-1.352
		c-1.106-0.9-1.659-2.457-1.659-4.668v-8.068c0-2.348,0.635-4.027,1.904-5.037s3.352-1.516,6.246-1.516
		c3.44,0,5.46,0.778,6.062,2.334v-1.925H645.019z M641.333,190.77v-8.969c0-1.283-0.349-2.164-1.044-2.642
		c-0.696-0.478-2.137-0.717-4.321-0.717c-2.048,0-3.386,0.232-4.014,0.696c-0.628,0.465-0.941,1.352-0.941,2.662v8.969
		c0,1.366,0.334,2.26,1.003,2.683c0.669,0.424,2.014,0.635,4.034,0.635c1.856,0,3.201-0.226,4.034-0.676
		C640.916,192.961,641.333,192.08,641.333,190.77z"/>
	<path d="M678.805,187.575c0,1.857-0.287,3.386-0.86,4.587c1.092,1.038,1.911,1.557,2.458,1.557h1.064v2.416h-2.621
		c-0.929,0-1.925-0.464-2.99-1.393c-1.72,1.202-4.382,1.802-7.985,1.802c-5.953,0-8.929-1.569-8.929-4.709v-4.465
		c0-2.074,1.256-3.672,3.768-4.791l1.926-0.901l-1.598-1.884c-0.847-0.983-1.27-1.925-1.27-2.826v-3.973
		c0-2.594,2.266-3.891,6.799-3.891c1.828,0,3.686,0.205,5.569,0.614v2.99c-2.048-0.683-3.932-1.024-5.651-1.024
		c-1.175,0-2.007,0.123-2.498,0.369c-0.492,0.245-0.737,0.669-0.737,1.27v3.03c0,0.41,0.136,0.778,0.409,1.105l9.911,12
		c0.082-0.491,0.123-1.064,0.123-1.72v-3.932h3.112V187.575z M666.108,183.438l-1.433,0.614c-0.574,0.273-1.031,0.69-1.372,1.25
		c-0.342,0.56-0.513,1.126-0.513,1.699v4.996c0,1.338,1.788,2.007,5.365,2.007h0.451c2.647,0,4.449-0.382,5.405-1.146
		L666.108,183.438z"/>
	<path d="M698.217,196.135h-3.973v-26.579h3.973V196.135z"/>
	<path d="M724.059,172.34h-8.969v23.795h-4.014V172.34h-9.011v-2.784h21.993V172.34z"/>
	<path d="M754.569,195.767c-2.376,0.518-4.86,0.777-7.454,0.777c-7.454,0-11.181-2.402-11.181-7.208v-12.613
		c0-5.079,3.727-7.618,11.181-7.618c2.484,0,4.914,0.26,7.29,0.778v2.949c-2.621-0.655-5.024-0.983-7.208-0.983
		c-1.038,0-1.952,0.062-2.744,0.185s-1.57,0.342-2.334,0.655c-0.765,0.314-1.352,0.806-1.762,1.475
		c-0.409,0.669-0.614,1.509-0.614,2.519v12.45c0,3.058,2.539,4.587,7.618,4.587c2.184,0,4.587-0.328,7.208-0.983V195.767z"/>
	<path d="M776.562,182.988v6.881c0,1.229-0.15,2.267-0.45,3.112c-0.301,0.847-0.683,1.502-1.146,1.966
		c-0.465,0.465-1.126,0.819-1.986,1.064c-0.86,0.246-1.68,0.396-2.457,0.451c-0.778,0.054-1.81,0.081-3.093,0.081
		c-1.638,0-2.914-0.055-3.829-0.163c-0.915-0.109-1.829-0.375-2.744-0.799c-0.915-0.423-1.57-1.099-1.966-2.027
		c-0.396-0.928-0.594-2.156-0.594-3.686v-6.881c0-1.311,0.157-2.416,0.472-3.317c0.313-0.901,0.695-1.597,1.146-2.089
		c0.45-0.491,1.112-0.866,1.986-1.126c0.873-0.259,1.686-0.416,2.437-0.471s1.781-0.082,3.092-0.082s2.341,0.027,3.093,0.082
		c0.75,0.055,1.563,0.212,2.437,0.471c0.873,0.26,1.536,0.635,1.986,1.126c0.45,0.492,0.832,1.188,1.146,2.089
		C776.404,180.572,776.562,181.678,776.562,182.988z M772.794,190.401v-8.027c0-1.829-0.368-2.962-1.105-3.399
		c-0.737-0.437-2.157-0.655-4.26-0.655s-3.521,0.219-4.259,0.655c-0.737,0.438-1.106,1.57-1.106,3.399v8.027
		c0,0.874,0.096,1.57,0.287,2.089c0.19,0.519,0.546,0.895,1.064,1.126c0.519,0.232,1.051,0.375,1.598,0.43
		c0.546,0.056,1.352,0.082,2.416,0.082c1.065,0,1.87-0.026,2.417-0.082c0.546-0.055,1.078-0.197,1.597-0.43
		c0.519-0.231,0.874-0.607,1.065-1.126C772.698,191.972,772.794,191.275,772.794,190.401z"/>
	<path d="M798.8,196.135h-3.686v-14.334c0-0.491-0.041-0.901-0.123-1.229c-0.082-0.328-0.253-0.662-0.512-1.004
		c-0.26-0.341-0.696-0.6-1.311-0.778c-0.614-0.177-1.387-0.266-2.314-0.266c-2.157,0-3.604,0.232-4.341,0.696
		c-0.737,0.465-1.105,1.324-1.105,2.58v14.334h-3.687v-19.822h3.687v2.417c0.382-1.885,2.552-2.826,6.512-2.826
		c2.621,0,4.423,0.471,5.405,1.413c0.983,0.941,1.475,2.369,1.475,4.279V196.135z"/>
	<path d="M819.317,189.173v1.72c0,2.13-0.744,3.604-2.232,4.423s-3.624,1.229-6.409,1.229c-2.13,0-4.396-0.163-6.799-0.491v-2.826
		c3.276,0.52,5.57,0.778,6.881,0.778c1.638,0,2.866-0.156,3.686-0.471c0.819-0.313,1.229-0.963,1.229-1.945v-2.007
		c0-0.846-0.286-1.447-0.859-1.802c-0.574-0.354-1.502-0.532-2.785-0.532h-2.253c-2.075,0-3.645-0.431-4.71-1.29
		c-1.064-0.86-1.597-2.041-1.597-3.543v-1.843c0-3.113,2.948-4.669,8.846-4.669c0.655,0,2.662,0.109,6.021,0.327v2.662
		c-2.349-0.382-4.409-0.573-6.184-0.573c-1.966,0-3.297,0.191-3.993,0.573c-0.696,0.383-1.045,1.024-1.045,1.925v1.68
		c0,1.338,1.215,2.007,3.646,2.007h2.293C817.229,184.504,819.317,186.06,819.317,189.173z"/>
	<path d="M840.899,196.135h-3.686v-2.416c-0.383,1.884-2.554,2.825-6.512,2.825c-2.621,0-4.424-0.471-5.406-1.412
		c-0.983-0.942-1.475-2.369-1.475-4.28v-14.539h3.687v14.334c0,0.492,0.04,0.901,0.122,1.229c0.082,0.328,0.252,0.663,0.513,1.004
		c0.259,0.342,0.695,0.601,1.311,0.778c0.614,0.178,1.385,0.266,2.313,0.266c2.048,0,3.467-0.19,4.259-0.573
		c0.792-0.382,1.188-1.078,1.188-2.089v-14.948h3.686V196.135z"/>
	<path d="M850.401,196.135h-3.687v-28.668h3.687V196.135z"/>
	<path d="M868.666,196.217c-1.311,0.218-2.689,0.327-4.137,0.327c-2.484,0-4.218-0.43-5.201-1.29
		c-0.982-0.859-1.474-2.491-1.474-4.894v-11.631h-4.424v-2.417h4.424v-6.143h3.727v6.143h7.085v2.417h-7.085v11.835
		c0,1.421,0.272,2.369,0.819,2.847c0.546,0.479,1.651,0.717,3.317,0.717c0.437,0,1.419-0.108,2.948-0.327V196.217z"/>
	<path d="M875.793,172.995h-3.687v-3.85h3.687V172.995z M875.793,196.135h-3.687v-19.822h3.687V196.135z"/>
	<path d="M898.686,196.135H895v-14.334c0-0.491-0.041-0.901-0.123-1.229c-0.082-0.328-0.253-0.662-0.512-1.004
		c-0.26-0.341-0.696-0.6-1.311-0.778c-0.614-0.177-1.387-0.266-2.314-0.266c-2.157,0-3.604,0.232-4.341,0.696
		c-0.737,0.465-1.105,1.324-1.105,2.58v14.334h-3.687v-19.822h3.687v2.417c0.382-1.885,2.552-2.826,6.512-2.826
		c2.621,0,4.423,0.471,5.405,1.413c0.983,0.941,1.475,2.369,1.475,4.279V196.135z"/>
	<path d="M921.415,176.313v21.706c0,2.812-0.785,4.703-2.354,5.672c-1.57,0.97-3.926,1.454-7.064,1.454
		c-2.813,0-5.093-0.15-6.84-0.45v-2.621c3.14,0.382,5.529,0.573,7.167,0.573c1.884,0,3.256-0.301,4.116-0.901s1.29-1.597,1.29-2.989
		v-4.751c-0.055,0.929-0.689,1.584-1.904,1.966c-1.216,0.382-2.601,0.573-4.157,0.573c-3.058,0-5.14-0.45-6.245-1.352
		c-1.106-0.9-1.659-2.457-1.659-4.668v-8.068c0-2.348,0.635-4.027,1.904-5.037s3.352-1.516,6.246-1.516
		c3.44,0,5.46,0.778,6.062,2.334v-1.925H921.415z M917.729,190.77v-8.969c0-1.283-0.349-2.164-1.044-2.642
		c-0.696-0.478-2.137-0.717-4.321-0.717c-2.048,0-3.386,0.232-4.014,0.696c-0.628,0.465-0.941,1.352-0.941,2.662v8.969
		c0,1.366,0.334,2.26,1.003,2.683c0.669,0.424,2.014,0.635,4.034,0.635c1.856,0,3.201-0.226,4.034-0.676
		C917.313,192.961,917.729,192.08,917.729,190.77z"/>
</g>
<g>
	<path fill="#FFFFFF" d="M102.442,145.322H80.48v-6.758c-1.639,2.971-3.993,5.095-7.064,6.374c-3.072,1.279-8.704,1.92-16.895,1.92
		c-10.035,0-16.689-1.536-19.965-4.607c-3.278-3.072-4.915-9.47-4.915-19.198c0-8.804,1.689-14.921,5.068-18.353
		c3.379-3.429,9.419-5.145,18.122-5.145H80.02v-5.068c0-4.504-1.051-7.499-3.148-8.984c-2.1-1.483-6.527-2.227-13.284-2.227
		c-6.35,0-15.051,0.614-26.109,1.843v-14.13c8.498-1.021,17.97-1.535,28.413-1.535c13.719,0,23.24,1.665,28.565,4.991
		c5.322,3.328,7.986,9.906,7.986,19.735V145.322z M80.02,126.278v-14.437H64.661c-4.914,0-7.985,0.564-9.214,1.689
		c-1.229,1.128-1.844,4.146-1.844,9.062c0,4.813,0.639,7.731,1.92,8.754c1.279,1.024,4.531,1.535,9.753,1.535
		c2.558,0,4.453-0.023,5.682-0.076c1.229-0.051,2.559-0.178,3.993-0.384c1.433-0.204,2.431-0.538,2.995-0.999
		c0.562-0.46,1.049-1.099,1.459-1.919C79.813,128.686,80.02,127.61,80.02,126.278z"/>
	<path fill="#FFFFFF" d="M195.818,70.989v78.326c0,10.852-3.713,18.53-11.135,23.037c-7.425,4.504-18.252,6.757-32.482,6.757
		c-11.672,0-20.633-0.359-26.876-1.074v-15.051c10.032,1.329,18.99,1.996,26.876,1.996c7.473,0,12.874-1.205,16.203-3.609
		c3.325-2.406,4.991-6.527,4.991-12.363v-11.979c-2.561,3.789-5.325,6.373-8.294,7.756c-2.971,1.382-8.14,2.073-15.511,2.073
		c-10.65,0-18.252-1.587-22.807-4.762c-4.558-3.172-6.835-9.061-6.835-17.661V95.409c0-10.033,2.098-16.868,6.297-20.503
		c4.197-3.634,12.337-5.452,24.419-5.452c5.323,0,9.419,0.333,12.287,0.998c2.865,0.667,5.015,1.639,6.45,2.918
		c1.433,1.281,3.019,3.302,4.761,6.066v-8.447H195.818z M173.396,123.053V93.105c0-3.993-1.025-6.628-3.072-7.91
		c-2.049-1.278-6.707-1.919-13.976-1.919c-6.042,0-9.882,0.743-11.519,2.227c-1.639,1.485-2.457,4.276-2.457,8.37v28.412
		c0,4.403,0.818,7.271,2.457,8.601c1.637,1.332,5.887,1.996,12.747,1.996c6.552,0,10.828-0.715,12.824-2.149
		C172.397,129.3,173.396,126.739,173.396,123.053z"/>
</g>
</svg>
