<svg id="Layer_1" xmlns="http://www.w3.org/2000/svg" xmlns:xlink="http://www.w3.org/1999/xlink" width="930.694" height="218.316" viewBox="0 0 930.694 218.316" enable-background="new 0 0 930.694 218.316"><path display="none" d="M40.174-18.021H8.936c-4.042.0-7.319-3.046-7.319-6.803v-29.041c0-3.756 3.277-6.803 7.319-6.803h31.238c4.043.0 7.318 3.046 7.318 6.803v29.041C47.492-21.067 44.217-18.021 40.174-18.021"/><g display="none"><path display="inline" d="M59.132-34.188l-7.92-2.754v-2.016l7.92-2.754v1.998l-5.868 1.764 5.868 1.764V-34.188z"/><path display="inline" d="M71.936-36.815v1.464c0 .576-.108 1.072-.324 1.488s-.488.74-.815.972c-.328.232-.756.412-1.284.54-.528.127-1.036.211-1.524.252-.488.04-1.06.06-1.716.06-1.264.0-2.792-.12-4.584-.36v-2.328c2.224.336 3.769.504 4.632.504.688.0 1.22-.068 1.597-.204.375-.136.563-.404.563-.804v-.72c0-.368-.104-.644-.312-.828-.208-.184-.656-.276-1.345-.276h-1.512c-1.216.0-2.164-.244-2.844-.732-.681-.488-1.021-1.204-1.021-2.148v-1.416c0-1.056.504-1.784 1.513-2.184 1.008-.4 2.432-.6 4.271-.6.769.0 2.144.072 4.128.216v2.232c-2.496-.192-3.904-.288-4.224-.288-.977.0-1.593.068-1.848.204-.257.136-.385.396-.385.78v.624c0 .192.1.368.3.528s.508.24.925.24h1.536C70.512-39.599 71.936-38.671 71.936-36.815z"/><path display="inline" d="M85.999-39.695v3.432c0 .752-.12 1.396-.359 1.932-.24.536-.537.952-.889 1.248-.352.296-.813.524-1.38.684-.568.16-1.088.26-1.56.3-.473.04-1.044.06-1.717.06-.672.0-1.244-.021-1.716-.06-.472-.041-.992-.141-1.56-.3-.568-.16-1.028-.388-1.38-.684-.353-.296-.648-.711-.889-1.248-.239-.536-.359-1.18-.359-1.932v-3.432c0-.8.124-1.484.372-2.052s.552-1.004.912-1.308c.359-.304.827-.54 1.403-.708s1.093-.272 1.548-.312c.456-.04 1.012-.06 1.668-.06s1.213.02 1.669.06c.455.04.972.144 1.548.312s1.044.404 1.403.708c.36.304.664.74.912 1.308S85.999-40.495 85.999-39.695zM82.495-35.855v-4.392c0-.624-.16-1.068-.479-1.332-.32-.264-.96-.396-1.921-.396-.96.0-1.6.132-1.92.396-.32.264-.479.708-.479 1.332v4.392c0 .608.156 1.032.468 1.272.313.24.956.36 1.932.36.977.0 1.62-.12 1.933-.36C82.339-34.823 82.495-35.247 82.495-35.855z"/><path display="inline" d="M92.335-32.279h-3.504v-16.8h3.504V-32.279z"/><path display="inline" d="M106.711-32.279h-3.456v-1.416c-.272 1.104-1.512 1.656-3.72 1.656-1.536.0-2.593-.276-3.168-.828-.576-.552-.864-1.388-.864-2.508v-8.52h3.504v8.04c0 .64.108 1.072.324 1.296s.731.336 1.548.336c1.008.0 1.647-.108 1.92-.324.271-.216.408-.652.408-1.308v-8.04h3.504V-32.279z"/><path display="inline" d="M117.534-32.159c-.672.08-1.32.12-1.944.12-.544.0-1.02-.021-1.428-.06-.408-.041-.832-.136-1.272-.288-.439-.152-.8-.352-1.079-.6-.28-.248-.513-.6-.696-1.056-.185-.456-.276-.996-.276-1.62v-6.072h-2.352v-2.16h2.352v-3.36h3.504v3.36h3.192v2.16h-3.192v5.472c0 .8.12 1.34.36 1.62s.768.42 1.584.42c.271.0.688-.04 1.248-.12V-32.159z"/><path display="inline" d="M123.149-45.263h-3.504v-2.832h3.504V-45.263zM123.149-32.279h-3.504v-11.616h3.504v11.616z"/><path display="inline" d="M137.789-39.695v3.432c0 .752-.12 1.396-.359 1.932-.24.536-.537.952-.889 1.248s-.813.524-1.38.684c-.568.16-1.088.26-1.56.3-.473.04-1.044.06-1.717.06-.672.0-1.244-.021-1.716-.06-.472-.041-.992-.141-1.56-.3-.568-.16-1.028-.388-1.38-.684-.353-.296-.648-.711-.889-1.248-.239-.536-.359-1.18-.359-1.932v-3.432c0-.8.124-1.484.372-2.052s.552-1.004.912-1.308c.359-.304.827-.54 1.403-.708s1.093-.272 1.548-.312c.456-.04 1.012-.06 1.668-.06s1.213.02 1.669.06c.455.04.972.144 1.548.312s1.044.404 1.403.708c.36.304.664.74.912 1.308S137.789-40.495 137.789-39.695zM134.285-35.855v-4.392c0-.624-.16-1.068-.479-1.332-.32-.264-.96-.396-1.921-.396-.96.0-1.6.132-1.92.396s-.479.708-.479 1.332v4.392c0 .608.156 1.032.468 1.272.313.24.956.36 1.932.36.977.0 1.62-.12 1.933-.36C134.129-34.823 134.285-35.247 134.285-35.855z"/><path display="inline" d="M151.733-32.279h-3.504v-8.064c0-.64-.108-1.072-.324-1.296s-.732-.336-1.548-.336c-1.008.0-1.648.108-1.92.324s-.408.652-.408 1.308v8.064h-3.504v-11.616h3.456v1.416c.271-1.104 1.512-1.656 3.72-1.656 1.536.0 2.592.276 3.168.828s.864 1.388.864 2.508V-32.279z"/><path display="inline" d="M164.813-36.815v1.464c0 .576-.108 1.072-.324 1.488s-.488.74-.815.972c-.328.232-.756.412-1.284.54-.528.127-1.036.211-1.524.252-.488.04-1.06.06-1.716.06-1.264.0-2.792-.12-4.584-.36v-2.328c2.224.336 3.769.504 4.632.504.688.0 1.22-.068 1.597-.204.375-.136.563-.404.563-.804v-.72c0-.368-.104-.644-.312-.828-.208-.184-.656-.276-1.345-.276h-1.512c-1.216.0-2.164-.244-2.844-.732-.681-.488-1.021-1.204-1.021-2.148v-1.416c0-1.056.504-1.784 1.513-2.184 1.008-.4 2.432-.6 4.271-.6.769.0 2.144.072 4.128.216v2.232c-2.496-.192-3.904-.288-4.224-.288-.977.0-1.593.068-1.848.204-.257.136-.385.396-.385.78v.624c0 .192.1.368.3.528.2.16.508.24.925.24h1.536C163.389-39.599 164.813-38.671 164.813-36.815z"/><path display="inline" d="M174.711-46.118l-6.804 14.049h-1.827l6.804-14.049H174.711z"/><path display="inline" d="M185.631-37.718l-9.24 3.213v-2.331l6.847-2.058-6.847-2.058v-2.331l9.24 3.213V-37.718z"/></g><g display="none"><path display="inline" d="M54.838-24.115v.376c0 .555-.156.937-.471 1.148-.315.21-.807.316-1.473.316-.427.0-.955-.043-1.584-.128v-.648c.629.133 1.174.2 1.632.2.368.0.649-.041.845-.124.193-.083.291-.249.291-.5v-.672c0-.219-.063-.375-.188-.468s-.351-.14-.676-.14h-.608c-.522.0-.887-.105-1.092-.316-.206-.211-.308-.521-.308-.932v-.416c0-.411.145-.715.436-.912s.825-.296 1.604-.296c.373.0.819.029 1.336.088v.584c-.592-.09-1.056-.136-1.392-.136-.496.0-.825.049-.987.148-.163.099-.244.265-.244.5v.592c0 .182.063.313.191.396.128.083.355.124.68.124h.625c.538.0.903.098 1.096.292C54.742-24.844 54.838-24.536 54.838-24.115z"/><path display="inline" d="M59.383-24.923v1.344c0 .24-.029.443-.088.608-.059.166-.134.293-.225.384s-.22.16-.388.208-.328.077-.479.088c-.152.011-.354.016-.604.016-.32.0-.569-.011-.748-.032-.179-.021-.357-.073-.536-.156s-.307-.215-.384-.396-.116-.421-.116-.72v-1.344c0-.256.031-.472.092-.648.062-.176.137-.312.225-.408s.217-.169.388-.22c.171-.05.329-.081.476-.092s.348-.016.604-.016.457.005.604.016c.146.011.305.042.476.092.171.051.3.124.388.22s.162.232.225.408C59.352-25.395 59.383-25.179 59.383-24.923zM58.646-23.475v-1.568c0-.357-.072-.579-.216-.664s-.421-.128-.832-.128-.688.043-.832.128-.216.307-.216.664v1.568c0 .171.019.307.056.408.037.101.106.175.208.22.102.045.205.074.313.084.105.011.264.016.472.016s.365-.005.472-.016c.107-.01.211-.039.313-.084.102-.045.17-.119.207-.22S58.646-23.304 58.646-23.475z"/><path display="inline" d="M62.91-25.755h-1.288v3.4h-.72v-3.4h-.889v-.472h.889v-.624c0-.437.123-.744.367-.92.246-.176.604-.264 1.072-.264.209.0.424.014.648.04v.472c-.188-.027-.395-.04-.624-.04-.262.0-.45.045-.568.136-.117.09-.176.267-.176.528v.672h1.288V-25.755z"/><path display="inline" d="M66.086-22.339c-.256.042-.525.064-.808.064-.485.0-.824-.084-1.017-.252-.191-.168-.287-.487-.287-.956v-2.272H63.11v-.472h.864v-1.2h.728v1.2h1.384v.472h-1.384v2.312c0 .277.054.462.16.556s.323.14.647.14c.086.0.277-.021.576-.064V-22.339z"/><path display="inline" d="M72.543-26.227l-1.273 3.872h-.855l-.936-3.128-.92 3.128h-.856l-1.304-3.872h.792l.944 3.184h.047l.912-3.184h.809l.943 3.184h.049l.912-3.184H72.543z"/><path display="inline" d="M76.374-22.355h-.696v-.368c-.059.299-.447.448-1.168.448-.533.0-.902-.082-1.107-.244-.206-.163-.309-.492-.309-.988.0-.432.096-.729.288-.892s.563-.244 1.112-.244h1.16v-.616c0-.213-.066-.357-.196-.432-.131-.075-.378-.112-.74-.112-.395.0-.837.032-1.328.096v-.528c.528-.048 1.005-.072 1.433-.072.65.0 1.072.079 1.264.236s.288.484.288.98V-22.355zM75.654-23.139v-1.056h-1.112c-.331.0-.538.042-.62.128-.083.085-.124.28-.124.584.0.272.044.463.132.572.088.109.273.164.557.164h.144c.139.0.255-.002.349-.008.093-.005.197-.02.315-.044.117-.024.206-.064.269-.12C75.623-22.975 75.654-23.048 75.654-23.139z"/><path display="inline" d="M79.766-25.691h-.4c-.33.0-.574.042-.731.128s-.235.246-.235.48v2.728h-.721v-3.872h.68v.632c0-.187.116-.352.348-.496s.469-.216.709-.216h.352V-25.691z"/><path display="inline" d="M83.727-24.131h-2.601v.584c0 .272.097.465.288.58s.477.172.855.172c.369.0.803-.064 1.305-.192v.552c-.48.107-.947.16-1.4.16-1.184.0-1.775-.395-1.775-1.184v-1.528c0-.475.136-.813.408-1.016.271-.203.706-.304 1.303-.304.561.0.97.098 1.229.292.259.195.389.538.389 1.028V-24.131zM83.006-24.603v-.608c0-.235-.072-.396-.216-.484-.144-.088-.384-.132-.72-.132-.32.0-.558.043-.713.128-.154.085-.231.248-.231.488v.608H83.006z"/><path display="inline" d="M90.39-22.355h-3.568v-5.192h3.488v.544h-2.712v1.696h2.447v.544h-2.447v1.864h2.792V-22.355z"/><path display="inline" d="M94.805-22.355h-.719v-2.8c0-.096-.009-.176-.025-.24s-.049-.129-.1-.196c-.051-.067-.136-.117-.256-.152-.119-.035-.271-.052-.451-.052-.422.0-.705.045-.849.136-.144.091-.216.259-.216.504v2.8h-.721v-3.872h.721v.472c.074-.368.498-.552 1.271-.552.512.0.864.092 1.057.276.191.184.287.462.287.836v2.84z"/><path display="inline" d="M99.414-26.227v4.24c0 .549-.154.918-.461 1.108-.307.189-.767.284-1.38.284-.55.0-.995-.029-1.336-.088v-.512c.613.075 1.08.112 1.399.112.369.0.637-.059.805-.176.168-.118.252-.312.252-.584v-.928c-.011.181-.135.31-.372.384-.237.075-.508.112-.812.112-.598.0-1.004-.088-1.221-.264-.216-.176-.324-.48-.324-.912v-1.576c0-.459.125-.787.373-.984s.654-.296 1.219-.296c.673.0 1.067.152 1.185.456v-.376H99.414zM98.693-23.403v-1.752c0-.251-.068-.423-.204-.516s-.417-.14-.844-.14c-.4.0-.661.045-.784.136-.123.09-.184.264-.184.52v1.752c0 .267.064.441.195.524s.394.124.788.124c.362.0.626-.044.788-.132C98.611-22.975 98.693-23.147 98.693-23.403z"/><path display="inline" d="M101.438-26.875h-.721v-.752h.721V-26.875zm0 4.52h-.721v-3.872h.721v3.872z"/><path display="inline" d="M106.076-22.355h-.719v-2.8c0-.096-.009-.176-.025-.24s-.049-.129-.1-.196c-.051-.067-.136-.117-.256-.152-.119-.035-.271-.052-.451-.052-.422.0-.705.045-.849.136-.144.091-.216.259-.216.504v2.8h-.721v-3.872h.721v.472c.074-.368.498-.552 1.271-.552.512.0.864.092 1.057.276.191.184.287.462.287.836v2.84z"/><path display="inline" d="M110.717-22.355h-.72v-2.8c0-.096-.009-.176-.024-.24s-.049-.129-.1-.196c-.051-.067-.137-.117-.256-.152-.12-.035-.271-.052-.452-.052-.421.0-.704.045-.849.136-.144.091-.215.259-.215.504v2.8h-.721v-3.872h.721v.472c.074-.368.498-.552 1.271-.552.512.0.863.092 1.056.276.192.184.288.462.288.836v2.84z"/><path display="inline" d="M115.205-24.131h-2.601v.584c0 .272.097.465.288.58s.477.172.855.172c.369.0.803-.064 1.305-.192v.552c-.48.107-.947.16-1.4.16-1.184.0-1.775-.395-1.775-1.184v-1.528c0-.475.136-.813.408-1.016.271-.203.706-.304 1.303-.304.561.0.97.098 1.229.292.259.195.389.538.389 1.028V-24.131zM114.484-24.603v-.608c0-.235-.072-.396-.216-.484-.144-.088-.384-.132-.72-.132-.32.0-.558.043-.713.128-.154.085-.231.248-.231.488v.608H114.484z"/><path display="inline" d="M118.444-25.691h-.399c-.331.0-.575.042-.732.128s-.236.246-.236.48v2.728h-.72v-3.872h.681v.632c0-.187.115-.352.348-.496.231-.144.468-.216.707-.216h.353V-25.691z"/><path display="inline" d="M119.941-26.875h-.721v-.752h.721V-26.875zm0 4.52h-.721v-3.872h.721v3.872z"/><path display="inline" d="M124.58-22.355h-.72v-2.8c0-.096-.009-.176-.024-.24s-.049-.129-.1-.196c-.051-.067-.137-.117-.256-.152-.12-.035-.271-.052-.452-.052-.421.0-.704.045-.849.136-.144.091-.215.259-.215.504v2.8h-.721v-3.872h.721v.472c.074-.368.498-.552 1.271-.552.512.0.863.092 1.056.276.192.184.288.462.288.836v2.84z"/><path display="inline" d="M129.188-26.227v4.24c0 .549-.153.918-.46 1.108-.307.189-.768.284-1.381.284-.549.0-.994-.029-1.336-.088v-.512c.613.075 1.08.112 1.4.112.368.0.637-.059.805-.176.168-.118.252-.312.252-.584v-.928c-.012.181-.135.31-.373.384-.236.075-.508.112-.812.112-.597.0-1.004-.088-1.22-.264-.217-.176-.324-.48-.324-.912v-1.576c0-.459.124-.787.372-.984s.655-.296 1.22-.296c.672.0 1.066.152 1.184.456v-.376H129.188zM128.469-23.403v-1.752c0-.251-.068-.423-.205-.516-.135-.093-.417-.14-.844-.14-.4.0-.661.045-.783.136-.123.09-.185.264-.185.52v1.752c0 .267.065.441.196.524s.393.124.787.124c.363.0.626-.044.789-.132C128.387-22.975 128.469-23.147 128.469-23.403z"/><path display="inline" d="M136.123-24.027c0 .363-.055.661-.168.896.214.203.374.304.48.304h.208v.472h-.512c-.182.0-.376-.091-.584-.272-.336.235-.856.352-1.56.352-1.164.0-1.744-.307-1.744-.92v-.872c0-.405.244-.717.735-.936l.376-.176-.313-.368c-.164-.192-.247-.376-.247-.552v-.776c0-.507.442-.76 1.327-.76.357.0.721.04 1.089.12v.584c-.4-.133-.769-.2-1.104-.2-.229.0-.392.024-.488.072s-.144.131-.144.248v.592c0 .08.026.152.08.216l1.937 2.344c.016-.096.023-.208.023-.336v-.768h.607V-24.027zM133.644-24.835l-.28.12c-.111.053-.201.135-.268.244-.066.109-.1.22-.1.332v.976c0 .262.349.392 1.047.392h.089c.517.0.869-.075 1.056-.224L133.644-24.835z"
		/><path display="inline" d="M140.252-22.355h-.776v-5.192h.776v5.192z"/><path display="inline" d="M145.468-27.003h-1.752v4.648h-.784v-4.648h-1.76v-.544h4.296V-27.003z"/><path display="inline" d="M151.764-22.427c-.465.101-.949.152-1.457.152-1.455.0-2.184-.469-2.184-1.408v-2.464c0-.992.729-1.488 2.184-1.488.486.0.961.05 1.425.152v.576c-.513-.128-.981-.192-1.408-.192-.202.0-.382.012-.536.036s-.307.067-.455.128c-.15.062-.265.157-.345.288s-.12.295-.12.492v2.432c0 .598.496.896 1.488.896.426.0.896-.064 1.408-.192V-22.427z"/><path display="inline" d="M156.227-24.923v1.344c0 .24-.029.443-.088.608-.059.166-.133.293-.224.384s-.22.16-.388.208-.328.077-.48.088-.354.016-.604.016c-.32.0-.569-.011-.748-.032s-.357-.073-.536-.156-.307-.215-.384-.396c-.078-.181-.116-.421-.116-.72v-1.344c0-.256.03-.472.092-.648s.136-.312.224-.408.218-.169.389-.22c.17-.05.329-.081.477-.092.146-.011.348-.016.604-.016s.457.005.604.016.306.042.477.092c.17.051.3.124.388.22s.163.232.224.408C156.196-25.395 156.227-25.179 156.227-24.923zM155.491-23.475v-1.568c0-.357-.071-.579-.216-.664s-.422-.128-.832-.128c-.411.0-.688.043-.832.128-.145.085-.217.307-.217.664v1.568c0 .171.02.307.057.408.037.101.106.175.208.22.101.045.205.074.312.084.107.011.265.016.473.016s.365-.005.472-.016c.106-.01.211-.039.312-.084.102-.045.172-.119.209-.22C155.473-23.168 155.491-23.304 155.491-23.475z"/><path display="inline" d="M160.738-22.355h-.719v-2.8c0-.096-.009-.176-.025-.24-.016-.064-.049-.129-.1-.196s-.136-.117-.256-.152c-.119-.035-.271-.052-.451-.052-.422.0-.705.045-.849.136-.144.091-.216.259-.216.504v2.8h-.721v-3.872h.721v.472c.074-.368.498-.552 1.271-.552.512.0.864.092 1.057.276.191.184.287.462.287.836v2.84z"/><path display="inline" d="M164.915-23.715v.336c0 .416-.146.704-.437.864-.291.16-.707.24-1.252.24-.416.0-.858-.032-1.328-.096v-.552c.641.101 1.088.152 1.345.152.319.0.56-.031.72-.092.16-.062.24-.188.24-.38v-.392c0-.166-.057-.283-.168-.352-.112-.069-.293-.104-.545-.104h-.439c-.405.0-.712-.084-.92-.252s-.313-.399-.313-.692v-.36c0-.608.576-.912 1.729-.912.128.0.52.021 1.176.064v.52c-.459-.074-.861-.112-1.207-.112-.385.0-.645.038-.781.112-.135.075-.203.2-.203.376v.328c0 .261.236.392.712.392h.448C164.507-24.627 164.915-24.323 164.915-23.715z"/><path display="inline" d="M169.299-22.355h-.72v-.472c-.075.368-.499.552-1.272.552-.512.0-.863-.092-1.056-.276-.192-.184-.288-.463-.288-.836v-2.84h.721v2.8c0 .096.008.176.023.24s.049.129.1.196.137.118.256.152c.121.035.271.052.452.052.4.0.677-.037.832-.112s.232-.21.232-.408v-2.92h.72V-22.355z"/><path display="inline" d="M171.322-22.355h-.72v-5.6h.72V-22.355z"/><path display="inline" d="M175.059-22.339c-.256.042-.525.064-.809.064-.484.0-.824-.084-1.016-.252s-.288-.487-.288-.956v-2.272h-.864v-.472h.864v-1.2h.728v1.2h1.385v.472h-1.385v2.312c0 .277.054.462.16.556.107.094.323.14.648.14.086.0.277-.021.576-.064V-22.339z"/><path display="inline" d="M176.619-26.875h-.721v-.752h.721V-26.875zm0 4.52h-.721v-3.872h.721v3.872z"/><path display="inline" d="M181.258-22.355h-.72v-2.8c0-.096-.009-.176-.024-.24s-.049-.129-.1-.196-.137-.117-.256-.152c-.12-.035-.271-.052-.452-.052-.421.0-.704.045-.849.136-.144.091-.215.259-.215.504v2.8h-.721v-3.872h.721v.472c.074-.368.498-.552 1.271-.552.512.0.863.092 1.056.276.192.184.288.462.288.836v2.84z"/><path display="inline" d="M185.866-26.227v4.24c0 .549-.153.918-.46 1.108-.307.189-.768.284-1.381.284-.549.0-.994-.029-1.336-.088v-.512c.613.075 1.08.112 1.4.112.368.0.637-.059.805-.176.168-.118.252-.312.252-.584v-.928c-.012.181-.135.31-.373.384-.236.075-.508.112-.812.112-.597.0-1.004-.088-1.22-.264-.217-.176-.324-.48-.324-.912v-1.576c0-.459.124-.787.372-.984s.655-.296 1.22-.296c.672.0 1.066.152 1.184.456v-.376H185.866zM185.146-23.403v-1.752c0-.251-.068-.423-.205-.516-.135-.093-.417-.14-.844-.14-.4.0-.661.045-.783.136-.123.09-.185.264-.185.52v1.752c0 .267.065.441.196.524s.393.124.787.124c.363.0.626-.044.789-.132C185.064-22.975 185.146-23.147 185.146-23.403z"/></g><g display="none"><path display="inline" fill="#fff" d="M21.628-32.279h-4.29v-1.32c-.32.58-.78.995-1.38 1.245-.6.25-1.7.375-3.3.375-1.96.0-3.26-.3-3.9-.9s-.96-1.85-.96-3.75c0-1.72.33-2.915.99-3.585s1.84-1.005 3.54-1.005h4.92v-.99c0-.88-.206-1.465-.615-1.755-.41-.29-1.275-.435-2.595-.435-1.24.0-2.94.12-5.1.36v-2.76c1.66-.2 3.51-.3 5.55-.3 2.68.0 4.54.325 5.58.975s1.56 1.935 1.56 3.855V-32.279zM17.249-36v-2.82h-3c-.96.0-1.56.11-1.8.33s-.36.81-.36 1.77c0 .94.125 1.51.375 1.71s.885.3 1.905.3c.5.0.87-.004 1.11-.015.24-.01.5-.035.78-.075.28-.04.475-.105.585-.195s.205-.215.285-.375C17.208-35.529 17.249-35.739 17.249-36z"/><path display="inline" fill="#fff" d="M39.868-46.799v15.3c0 2.12-.726 3.62-2.175 4.5-1.45.88-3.565 1.32-6.346 1.32-2.279.0-4.03-.07-5.25-.21v-2.94c1.96.259 3.71.39 5.25.39 1.461.0 2.516-.235 3.166-.705.649-.47.975-1.275.975-2.415v-2.34c-.5.74-1.04 1.245-1.62 1.515s-1.59.405-3.03.405c-2.08.0-3.565-.31-4.455-.93-.89-.62-1.335-1.77-1.335-3.45v-5.67c0-1.96.41-3.295 1.23-4.005s2.41-1.065 4.771-1.065c1.039.0 1.84.065 2.399.195.56.13.979.32 1.261.57.279.25.589.645.93 1.185v-1.65H39.868zM35.488-36.629v-5.85c0-.78-.2-1.294-.6-1.545-.4-.25-1.311-.375-2.73-.375-1.18.0-1.93.146-2.25.435-.32.29-.48.835-.48 1.635v5.55c0 .86.16 1.42.48 1.68s1.15.39 2.49.39c1.279.0 2.115-.14 2.505-.42C35.293-35.409 35.488-35.909 35.488-36.629z"/></g><path d="M197.383 218.316H37.464C16.776 218.316.0 202.727.0 183.491V34.827C0 15.595 16.776.0 37.464.0h159.919c20.701.0 37.467 15.595 37.467 34.827v148.664C234.85 202.727 218.084 218.316 197.383 218.316"/><g><path d="M329.593 116.298v9.368c0 3.686-.691 6.86-2.073 9.521-1.383 2.664-3.125 4.737-5.222 6.221-2.1 1.485-4.838 2.637-8.217 3.455s-6.631 1.356-9.752 1.612c-3.125.255-6.784.385-10.981.385-8.089.0-17.868-.769-29.334-2.304v-14.897c14.23 2.15 24.112 3.225 29.642 3.225 4.4.0 7.806-.434 10.213-1.305 2.404-.869 3.609-2.585 3.609-5.146v-4.607c0-2.354-.668-4.12-1.997-5.298-1.332-1.176-4.199-1.767-8.601-1.767h-9.676c-7.781.0-13.848-1.56-18.199-4.684-4.353-3.122-6.526-7.703-6.526-13.746v-9.061c0-6.758 3.225-11.416 9.675-13.977 6.451-2.558 15.563-3.839 27.338-3.839 4.914.0 13.719.461 26.415 1.382v14.283c-15.972-1.229-24.982-1.843-27.029-1.843-6.247.0-10.189.437-11.826 1.305-1.639.871-2.457 2.534-2.457 4.992v3.992c0 1.229.639 2.357 1.92 3.379 1.278 1.025 3.249 1.536 5.912 1.536h9.829C320.479 98.482 329.593 104.422 329.593 116.298z"/><path d="M419.589 97.868v21.962c0 4.813-.768 8.934-2.304 12.363-1.536 3.432-3.432 6.093-5.683 7.986-2.253 1.896-5.197 3.354-8.831 4.377-3.635 1.021-6.964 1.663-9.982 1.919-3.021.255-6.681.385-10.98.385-4.301.0-7.963-.13-10.981-.385-3.021-.256-6.35-.897-9.982-1.919-3.636-1.022-6.58-2.481-8.831-4.377-2.253-1.894-4.146-4.555-5.683-7.986-1.535-3.43-2.304-7.55-2.304-12.363V97.868c0-5.118.792-9.496 2.381-13.131 1.586-3.634 3.532-6.424 5.836-8.37 2.304-1.944 5.299-3.456 8.984-4.531 3.686-1.074 6.988-1.739 9.906-1.996 2.918-.255 6.474-.384 10.674-.384 4.196.0 7.756.129 10.674.384 2.918.257 6.22.922 9.905 1.996 3.687 1.075 6.681 2.587 8.984 4.531 2.304 1.946 4.248 4.736 5.836 8.37C418.795 88.372 419.589 92.75 419.589 97.868zM397.166 122.44V94.336c0-3.993-1.024-6.835-3.071-8.523-2.05-1.689-6.144-2.534-12.286-2.534-6.144.0-10.24.845-12.287 2.534-2.049 1.688-3.071 4.53-3.071 8.523v28.104c0 3.893.998 6.604 2.995 8.14 1.996 1.536 6.116 2.304 12.363 2.304 6.243.0 10.366-.768 12.363-2.304C396.168 129.045 397.166 126.333 397.166 122.44z"/><path d="M460.134 145.324h-22.423V37.818h22.423V145.324z"/><path d="M552.128 145.324h-22.115v-9.062c-1.742 7.065-9.676 10.598-23.805 10.598-9.829.0-16.587-1.767-20.272-5.299-3.687-3.532-5.529-8.881-5.529-16.049V70.991h22.423v51.449c0 4.097.69 6.861 2.073 8.294 1.382 1.435 4.684 2.149 9.906 2.149 6.45.0 10.544-.69 12.286-2.073 1.739-1.382 2.61-4.17 2.61-8.37V70.991h22.423V145.324z"/><path d="M621.391 146.092c-4.301.512-8.447.769-12.44.769-3.481.0-6.526-.13-9.138-.385-2.611-.256-5.325-.87-8.14-1.843-2.817-.972-5.121-2.251-6.911-3.839-1.793-1.587-3.278-3.84-4.454-6.758-1.178-2.918-1.766-6.374-1.766-10.366V84.813h-15.051V70.991h15.051V49.49h22.422v21.501h20.427v13.822h-20.427v35.017c0 5.121.769 8.576 2.304 10.366 1.536 1.793 4.915 2.688 10.137 2.688 1.74.0 4.401-.254 7.986-.768V146.092z"/><path d="M657.328 62.237h-22.423V44.115h22.423V62.237zM657.328 145.324h-22.423V70.991h22.423V145.324z"/><path d="M751.012 97.868v21.962c0 4.813-.768 8.934-2.304 12.363-1.536 3.432-3.432 6.093-5.683 7.986-2.253 1.896-5.197 3.354-8.831 4.377-3.635 1.021-6.964 1.663-9.982 1.919-3.021.255-6.681.385-10.98.385-4.301.0-7.963-.13-10.981-.385-3.021-.256-6.35-.897-9.982-1.919-3.636-1.022-6.58-2.481-8.831-4.377-2.253-1.894-4.146-4.555-5.683-7.986-1.535-3.43-2.304-7.55-2.304-12.363V97.868c0-5.118.792-9.496 2.381-13.131 1.586-3.634 3.532-6.424 5.836-8.37 2.304-1.944 5.299-3.456 8.984-4.531 3.686-1.074 6.988-1.739 9.906-1.996 2.918-.255 6.474-.384 10.674-.384 4.196.0 7.756.129 10.674.384 2.918.257 6.22.922 9.905 1.996 3.687 1.075 6.681 2.587 8.984 4.531 2.304 1.946 4.248 4.736 5.836 8.37C750.218 88.372 751.012 92.75 751.012 97.868zM728.589 122.44V94.336c0-3.993-1.024-6.835-3.071-8.523-2.05-1.689-6.144-2.534-12.286-2.534-6.144.0-10.24.845-12.287 2.534-2.049 1.688-3.071 4.53-3.071 8.523v28.104c0 3.893.998 6.604 2.995 8.14 1.996 1.536 6.116 2.304 12.363 2.304 6.243.0 10.366-.768 12.363-2.304C727.591 129.045 728.589 126.333 728.589 122.44z"/><path d="M840.241 145.324h-22.423V93.722c0-4.094-.69-6.858-2.073-8.294-1.382-1.433-4.684-2.149-9.905-2.149-6.451.0-10.547.69-12.287 2.073-1.742 1.382-2.61 4.173-2.61 8.37v51.603H768.52V70.991h22.115v9.062c1.74-7.064 9.676-10.597 23.805-10.597 9.829.0 16.587 1.766 20.272 5.298 3.687 3.533 5.529 8.884 5.529 16.05V145.324z"/><path d="M923.94 116.298v9.368c0 3.686-.691 6.86-2.073 9.521-1.383 2.664-3.125 4.737-5.222 6.221-2.1 1.485-4.838 2.637-8.217 3.455s-6.631 1.356-9.752 1.612c-3.125.255-6.784.385-10.981.385-8.089.0-17.868-.769-29.334-2.304v-14.897c14.23 2.15 24.112 3.225 29.642 3.225 4.4.0 7.806-.434 10.213-1.305 2.404-.869 3.609-2.585 3.609-5.146v-4.607c0-2.354-.668-4.12-1.997-5.298-1.332-1.176-4.199-1.767-8.601-1.767h-9.676c-7.781.0-13.848-1.56-18.199-4.684-4.353-3.122-6.526-7.703-6.526-13.746v-9.061c0-6.758 3.225-11.416 9.675-13.977 6.451-2.558 15.563-3.839 27.338-3.839 4.914.0 13.719.461 26.415 1.382v14.283c-15.972-1.229-24.982-1.843-27.029-1.843-6.247.0-10.189.437-11.826 1.305-1.639.871-2.457 2.534-2.457 4.992v3.992c0 1.229.639 2.357 1.92 3.379 1.278 1.025 3.249 1.536 5.912 1.536h9.829C914.826 98.482 923.94 104.422 923.94 116.298z"/></g><g><path d="M280.734 187.125v1.925c0 2.84-.806 4.799-2.416 5.877-1.611 1.079-4.123 1.617-7.536 1.617-2.185.0-4.888-.219-8.109-.655v-3.317c3.222.684 6.007 1.024 8.355 1.024 1.884.0 3.323-.211 4.32-.635.996-.423 1.495-1.276 1.495-2.56v-3.44c0-1.119-.321-1.918-.963-2.396s-1.795-.717-3.46-.717h-3.113c-2.676.0-4.539-.539-5.59-1.618-1.052-1.078-1.577-2.668-1.577-4.771v-2.129c0-2.103.744-3.658 2.232-4.669 1.487-1.01 4.225-1.516 8.211-1.516 1.911.0 4.191.15 6.84.45v2.99c-3.031-.464-5.406-.696-7.126-.696-2.539.0-4.226.253-5.059.758-.833.506-1.249 1.358-1.249 2.56v3.03c0 .929.328 1.604.983 2.027.655.424 1.815.635 3.481.635h3.194c2.757.0 4.628.499 5.61 1.495C280.243 183.392 280.734 184.968 280.734 187.125z"/><path d="M303.136 182.988v6.881c0 1.229-.15 2.267-.45 3.112-.301.847-.683 1.502-1.146 1.966-.465.465-1.126.819-1.986 1.064-.86.246-1.68.396-2.457.451-.778.054-1.81.081-3.093.081-1.638.0-2.914-.055-3.829-.163-.915-.109-1.829-.375-2.744-.799-.915-.423-1.57-1.099-1.966-2.027s-.594-2.156-.594-3.686v-6.881c0-1.311.157-2.416.472-3.317.313-.901.695-1.597 1.146-2.089.45-.491 1.112-.866 1.986-1.126.873-.259 1.686-.416 2.437-.471s1.781-.082 3.092-.082 2.341.027 3.093.082c.75.055 1.563.212 2.437.471.873.26 1.536.635 1.986 1.126.45.492.832 1.188 1.146 2.089C302.979 180.572 303.136 181.678 303.136 182.988zM299.368 190.401v-8.027c0-1.829-.368-2.962-1.105-3.399s-2.157-.655-4.26-.655-3.521.219-4.259.655c-.737.438-1.106 1.57-1.106 3.399v8.027c0 .874.096 1.57.287 2.089.19.519.546.895 1.064 1.126.519.232 1.051.375 1.598.43.546.056 1.352.082 2.416.082 1.065.0 1.87-.026 2.417-.082.546-.055 1.078-.197 1.597-.43.519-.231.874-.607 1.065-1.126C299.272 191.972 299.368 191.275 299.368 190.401z"/><path d="M320.337 178.729h-6.594v17.405h-3.687v-17.405h-4.546v-2.417h4.546v-3.194c0-2.238.628-3.809 1.885-4.71 1.255-.9 3.085-1.352 5.487-1.352 1.065.0 2.171.068 3.317.205v2.416c-.956-.136-2.021-.204-3.194-.204-1.338.0-2.308.232-2.908.696s-.9 1.365-.9 2.703v3.439h6.594V178.729z"/><path d="M335.734 196.217c-1.311.218-2.689.327-4.137.327-2.484.0-4.218-.43-5.201-1.29-.982-.859-1.474-2.491-1.474-4.894v-11.631h-4.424v-2.417h4.424v-6.143h3.727v6.143h7.085v2.417h-7.085v11.835c0 1.421.272 2.369.819 2.847.546.479 1.651.717 3.317.717.437.0 1.419-.108 2.948-.327V196.217z"/><path d="M367.925 176.313l-6.512 19.822h-4.382l-4.792-16.014-4.71 16.014h-4.382l-6.676-19.822h4.055l4.833 16.3h.245l4.669-16.3h4.137l4.832 16.3h.246l4.669-16.3H367.925z"/><path d="M386.682 196.135h-3.563v-1.884c-.301 1.529-2.294 2.293-5.979 2.293-2.73.0-4.622-.416-5.673-1.249-1.051-.832-1.576-2.519-1.576-5.058.0-2.212.491-3.733 1.475-4.566.982-.833 2.88-1.249 5.692-1.249h5.938v-3.153c0-1.092-.335-1.829-1.004-2.212-.669-.382-1.932-.573-3.788-.573-2.021.0-4.286.164-6.798.491v-2.703c2.702-.245 5.146-.368 7.33-.368 3.331.0 5.488.403 6.472 1.208.982.806 1.474 2.478 1.474 5.017V196.135zM382.996 192.121v-5.406h-5.692c-1.693.0-2.751.219-3.175.655-.423.438-.635 1.434-.635 2.99.0 1.393.226 2.369.676 2.928.451.561 1.399.84 2.847.84h.737c.71.0 1.304-.014 1.781-.041.478-.026 1.017-.103 1.618-.226.6-.122 1.058-.327 1.372-.614C382.839 192.961 382.996 192.586 382.996 192.121z"/><path d="M403.187 179.057h-2.048c-1.693.0-2.942.219-3.747.655-.806.438-1.208 1.256-1.208 2.457v13.966h-3.687v-19.822h3.481v3.235c0-.955.594-1.802 1.781-2.539s2.396-1.105 3.625-1.105h1.802V179.057z"/><path d="M422.599 187.043h-13.31v2.989c0 1.393.491 2.383 1.474 2.97s2.443.88 4.383.88c1.884.0 4.108-.327 6.675-.982v2.826c-2.457.546-4.847.818-7.167.818-6.061.0-9.092-2.02-9.092-6.061v-7.822c0-2.431.696-4.164 2.089-5.202 1.393-1.037 3.617-1.556 6.676-1.556 2.866.0 4.962.498 6.286 1.495s1.986 2.751 1.986 5.263V187.043zM418.913 184.627v-3.113c0-1.201-.369-2.027-1.105-2.478-.737-.45-1.966-.676-3.687-.676-1.638.0-2.854.219-3.645.655-.792.438-1.188 1.27-1.188 2.498v3.113h9.625z"/><path d="M454.993 196.135h-18.266v-26.579h17.856v2.784H440.7v8.683h12.532v2.785H440.7v9.542h14.293V196.135z"/><path d="M476.739 196.135h-3.686v-14.334c0-.491-.041-.901-.123-1.229s-.253-.662-.512-1.004c-.26-.341-.696-.6-1.311-.778-.614-.177-1.387-.266-2.314-.266-2.157.0-3.604.232-4.341.696-.737.465-1.105 1.324-1.105 2.58v14.334h-3.687v-19.822h3.687v2.417c.382-1.885 2.552-2.826 6.512-2.826 2.621.0 4.423.471 5.405 1.413.983.941 1.475 2.369 1.475 4.279V196.135z"/><path d="M499.469 176.313v21.706c0 2.812-.785 4.703-2.354 5.672-1.57.97-3.926 1.454-7.064 1.454-2.813.0-5.093-.15-6.84-.45v-2.621c3.14.382 5.529.573 7.167.573 1.884.0 3.256-.301 4.116-.901s1.29-1.597 1.29-2.989v-4.751c-.055.929-.689 1.584-1.904 1.966-1.216.382-2.601.573-4.157.573-3.058.0-5.14-.45-6.245-1.352-1.106-.9-1.659-2.457-1.659-4.668v-8.068c0-2.348.635-4.027 1.904-5.037s3.352-1.516 6.246-1.516c3.44.0 5.46.778 6.062 2.334v-1.925H499.469zM495.783 190.77v-8.969c0-1.283-.349-2.164-1.044-2.642-.696-.478-2.137-.717-4.321-.717-2.048.0-3.386.232-4.014.696-.628.465-.941 1.352-.941 2.662v8.969c0 1.366.334 2.26 1.003 2.683.669.424 2.014.635 4.034.635 1.856.0 3.201-.226 4.034-.676C495.366 192.961 495.783 192.08 495.783 190.77z"/><path d="M508.971 172.995h-3.687v-3.85h3.687V172.995zM508.971 196.135h-3.687v-19.822h3.687V196.135z"/><path d="M531.863 196.135h-3.686v-14.334c0-.491-.041-.901-.123-1.229s-.253-.662-.512-1.004c-.26-.341-.696-.6-1.311-.778-.614-.177-1.387-.266-2.314-.266-2.157.0-3.604.232-4.341.696-.737.465-1.105 1.324-1.105 2.58v14.334h-3.687v-19.822h3.687v2.417c.382-1.885 2.552-2.826 6.512-2.826 2.621.0 4.423.471 5.405 1.413.983.941 1.475 2.369 1.475 4.279V196.135z"/><path d="M553.979 187.043h-13.31v2.989c0 1.393.491 2.383 1.474 2.97.983.587 2.443.88 4.383.88 1.884.0 4.108-.327 6.675-.982v2.826c-2.457.546-4.847.818-7.167.818-6.061.0-9.092-2.02-9.092-6.061v-7.822c0-2.431.696-4.164 2.089-5.202 1.393-1.037 3.617-1.556 6.676-1.556 2.866.0 4.962.498 6.286 1.495s1.986 2.751 1.986 5.263V187.043zM550.293 184.627v-3.113c0-1.201-.369-2.027-1.105-2.478-.737-.45-1.966-.676-3.687-.676-1.638.0-2.854.219-3.645.655-.792.438-1.188 1.27-1.188 2.498v3.113h9.625z"/><path d="M575.315 187.043h-13.31v2.989c0 1.393.491 2.383 1.474 2.97.983.587 2.443.88 4.383.88 1.884.0 4.108-.327 6.675-.982v2.826c-2.457.546-4.847.818-7.167.818-6.061.0-9.092-2.02-9.092-6.061v-7.822c0-2.431.696-4.164 2.089-5.202 1.393-1.037 3.617-1.556 6.676-1.556 2.866.0 4.962.498 6.286 1.495s1.986 2.751 1.986 5.263V187.043zM571.63 184.627v-3.113c0-1.201-.369-2.027-1.105-2.478-.737-.45-1.966-.676-3.687-.676-1.638.0-2.854.219-3.645.655-.792.438-1.188 1.27-1.188 2.498v3.113h9.625z"/><path d="M591.041 179.057h-2.048c-1.693.0-2.942.219-3.747.655-.806.438-1.208 1.256-1.208 2.457v13.966h-3.687v-19.822h3.481v3.235c0-.955.594-1.802 1.781-2.539s2.396-1.105 3.625-1.105h1.802V179.057z"/><path d="M597.84 172.995h-3.687v-3.85h3.687V172.995zM597.84 196.135h-3.687v-19.822h3.687V196.135z"/><path d="M620.732 196.135h-3.686v-14.334c0-.491-.041-.901-.123-1.229s-.253-.662-.512-1.004c-.26-.341-.696-.6-1.311-.778-.614-.177-1.387-.266-2.314-.266-2.157.0-3.604.232-4.341.696-.737.465-1.105 1.324-1.105 2.58v14.334h-3.687v-19.822h3.687v2.417c.382-1.885 2.552-2.826 6.512-2.826 2.621.0 4.423.471 5.405 1.413.983.941 1.475 2.369 1.475 4.279V196.135z"/><path d="M643.462 176.313v21.706c0 2.812-.785 4.703-2.354 5.672-1.57.97-3.926 1.454-7.064 1.454-2.813.0-5.093-.15-6.84-.45v-2.621c3.14.382 5.529.573 7.167.573 1.884.0 3.256-.301 4.116-.901s1.29-1.597 1.29-2.989v-4.751c-.055.929-.689 1.584-1.904 1.966-1.216.382-2.601.573-4.157.573-3.058.0-5.14-.45-6.245-1.352-1.106-.9-1.659-2.457-1.659-4.668v-8.068c0-2.348.635-4.027 1.904-5.037s3.352-1.516 6.246-1.516c3.44.0 5.46.778 6.062 2.334v-1.925H643.462zM639.776 190.77v-8.969c0-1.283-.349-2.164-1.044-2.642-.696-.478-2.137-.717-4.321-.717-2.048.0-3.386.232-4.014.696-.628.465-.941 1.352-.941 2.662v8.969c0 1.366.334 2.26 1.003 2.683.669.424 2.014.635 4.034.635 1.856.0 3.201-.226 4.034-.676C639.359 192.961 639.776 192.08 639.776 190.77z"/><path d="M677.249 187.575c0 1.857-.287 3.386-.86 4.587 1.092 1.038 1.911 1.557 2.458 1.557h1.064v2.416h-2.621c-.929.0-1.925-.464-2.99-1.393-1.72 1.202-4.382 1.802-7.985 1.802-5.953.0-8.929-1.569-8.929-4.709v-4.465c0-2.074 1.256-3.672 3.768-4.791l1.926-.901-1.598-1.884c-.847-.983-1.27-1.925-1.27-2.826v-3.973c0-2.594 2.266-3.891 6.799-3.891 1.828.0 3.686.205 5.569.614v2.99c-2.048-.683-3.932-1.024-5.651-1.024-1.175.0-2.007.123-2.498.369-.492.245-.737.669-.737 1.27v3.03c0 .41.136.778.409 1.105l9.911 12c.082-.491.123-1.064.123-1.72v-3.932h3.112V187.575zM664.553 183.438l-1.433.614c-.574.273-1.031.69-1.372 1.25-.342.56-.513 1.126-.513 1.699v4.996c0 1.338 1.788 2.007 5.365 2.007h.451c2.647.0 4.449-.382 5.405-1.146L664.553 183.438z"/><path d="M696.661 196.135h-3.973v-26.579h3.973V196.135z"/><path d="M722.503 172.34h-8.969v23.795h-4.014V172.34h-9.011v-2.784h21.993V172.34z"/><path d="M753.015 195.767c-2.376.518-4.86.777-7.454.777-7.454.0-11.181-2.402-11.181-7.208v-12.613c0-5.079 3.727-7.618 11.181-7.618 2.484.0 4.914.26 7.29.778v2.949c-2.621-.655-5.024-.983-7.208-.983-1.038.0-1.952.062-2.744.185s-1.57.342-2.334.655c-.765.314-1.352.806-1.762 1.475-.409.669-.614 1.509-.614 2.519v12.45c0 3.058 2.539 4.587 7.618 4.587 2.184.0 4.587-.328 7.208-.983V195.767z"/><path d="M775.006 182.988v6.881c0 1.229-.15 2.267-.45 3.112-.301.847-.683 1.502-1.146 1.966-.465.465-1.126.819-1.986 1.064-.86.246-1.68.396-2.457.451-.778.054-1.81.081-3.093.081-1.638.0-2.914-.055-3.829-.163-.915-.109-1.829-.375-2.744-.799-.915-.423-1.57-1.099-1.966-2.027s-.594-2.156-.594-3.686v-6.881c0-1.311.157-2.416.472-3.317.313-.901.695-1.597 1.146-2.089.45-.491 1.112-.866 1.986-1.126.873-.259 1.686-.416 2.437-.471s1.781-.082 3.092-.082 2.341.027 3.093.082c.75.055 1.563.212 2.437.471.873.26 1.536.635 1.986 1.126.45.492.832 1.188 1.146 2.089C774.849 180.572 775.006 181.678 775.006 182.988zM771.238 190.401v-8.027c0-1.829-.368-2.962-1.105-3.399s-2.157-.655-4.26-.655-3.521.219-4.259.655c-.737.438-1.106 1.57-1.106 3.399v8.027c0 .874.096 1.57.287 2.089.19.519.546.895 1.064 1.126.519.232 1.051.375 1.598.43.546.056 1.352.082 2.416.082 1.065.0 1.87-.026 2.417-.082.546-.055 1.078-.197 1.597-.43.519-.231.874-.607 1.065-1.126C771.143 191.972 771.238 191.275 771.238 190.401z"/><path d="M797.244 196.135h-3.686v-14.334c0-.491-.041-.901-.123-1.229s-.253-.662-.512-1.004c-.26-.341-.696-.6-1.311-.778-.614-.177-1.387-.266-2.314-.266-2.157.0-3.604.232-4.341.696-.737.465-1.105 1.324-1.105 2.58v14.334h-3.687v-19.822h3.687v2.417c.382-1.885 2.552-2.826 6.512-2.826 2.621.0 4.423.471 5.405 1.413.983.941 1.475 2.369 1.475 4.279V196.135z"/><path d="M817.763 189.173v1.72c0 2.13-.744 3.604-2.232 4.423s-3.624 1.229-6.409 1.229c-2.13.0-4.396-.163-6.799-.491v-2.826c3.276.52 5.57.778 6.881.778 1.638.0 2.866-.156 3.686-.471.819-.313 1.229-.963 1.229-1.945v-2.007c0-.846-.286-1.447-.859-1.802-.574-.354-1.502-.532-2.785-.532h-2.253c-2.075.0-3.645-.431-4.71-1.29-1.064-.86-1.597-2.041-1.597-3.543v-1.843c0-3.113 2.948-4.669 8.846-4.669.655.0 2.662.109 6.021.327v2.662c-2.349-.382-4.409-.573-6.184-.573-1.966.0-3.297.191-3.993.573-.696.383-1.045 1.024-1.045 1.925v1.68c0 1.338 1.215 2.007 3.646 2.007h2.293C815.674 184.504 817.763 186.06 817.763 189.173z"/><path d="M839.345 196.135h-3.686v-2.416c-.383 1.884-2.554 2.825-6.512 2.825-2.621.0-4.424-.471-5.406-1.412-.983-.942-1.475-2.369-1.475-4.28v-14.539h3.687v14.334c0 .492.04.901.122 1.229s.252.663.513 1.004c.259.342.695.601 1.311.778.614.178 1.385.266 2.313.266 2.048.0 3.467-.19 4.259-.573.792-.382 1.188-1.078 1.188-2.089v-14.948h3.686V196.135z"/><path d="M848.847 196.135h-3.687v-28.668h3.687V196.135z"/><path d="M867.111 196.217c-1.311.218-2.689.327-4.137.327-2.484.0-4.218-.43-5.201-1.29-.982-.859-1.474-2.491-1.474-4.894v-11.631h-4.424v-2.417h4.424v-6.143h3.727v6.143h7.085v2.417h-7.085v11.835c0 1.421.272 2.369.819 2.847.546.479 1.651.717 3.317.717.437.0 1.419-.108 2.948-.327V196.217z"/><path d="M874.238 172.995h-3.687v-3.85h3.687V172.995zM874.238 196.135h-3.687v-19.822h3.687V196.135z"/><path d="M897.131 196.135h-3.686v-14.334c0-.491-.041-.901-.123-1.229s-.253-.662-.512-1.004c-.26-.341-.696-.6-1.311-.778-.614-.177-1.387-.266-2.314-.266-2.157.0-3.604.232-4.341.696-.737.465-1.105 1.324-1.105 2.58v14.334h-3.687v-19.822h3.687v2.417c.382-1.885 2.552-2.826 6.512-2.826 2.621.0 4.423.471 5.405 1.413.983.941 1.475 2.369 1.475 4.279V196.135z"/><path d="M919.859 176.313v21.706c0 2.812-.785 4.703-2.354 5.672-1.57.97-3.926 1.454-7.064 1.454-2.813.0-5.093-.15-6.84-.45v-2.621c3.14.382 5.529.573 7.167.573 1.884.0 3.256-.301 4.116-.901s1.29-1.597 1.29-2.989v-4.751c-.055.929-.689 1.584-1.904 1.966-1.216.382-2.601.573-4.157.573-3.058.0-5.14-.45-6.245-1.352-1.106-.9-1.659-2.457-1.659-4.668v-8.068c0-2.348.635-4.027 1.904-5.037s3.352-1.516 6.246-1.516c3.44.0 5.46.778 6.062 2.334v-1.925H919.859zM916.174 190.77v-8.969c0-1.283-.349-2.164-1.044-2.642-.696-.478-2.137-.717-4.321-.717-2.048.0-3.386.232-4.014.696-.628.465-.941 1.352-.941 2.662v8.969c0 1.366.334 2.26 1.003 2.683.669.424 2.014.635 4.034.635 1.856.0 3.201-.226 4.034-.676C915.757 192.961 916.174 192.08 916.174 190.77z"/></g><g><path fill="#fff" d="M102.442 145.322H80.48v-6.758c-1.639 2.971-3.993 5.095-7.064 6.374-3.072 1.279-8.704 1.92-16.895 1.92-10.035.0-16.689-1.536-19.965-4.607-3.278-3.072-4.915-9.47-4.915-19.198.0-8.804 1.689-14.921 5.068-18.353 3.379-3.429 9.419-5.145 18.122-5.145H80.02v-5.068c0-4.504-1.051-7.499-3.148-8.984-2.1-1.483-6.527-2.227-13.284-2.227-6.35.0-15.051.614-26.109 1.843v-14.13c8.498-1.021 17.97-1.535 28.413-1.535 13.719.0 23.24 1.665 28.565 4.991 5.322 3.328 7.986 9.906 7.986 19.735V145.322zM80.02 126.278v-14.437H64.661c-4.914.0-7.985.564-9.214 1.689-1.229 1.128-1.844 4.146-1.844 9.062.0 4.813.639 7.731 1.92 8.754 1.279 1.024 4.531 1.535 9.753 1.535 2.558.0 4.453-.023 5.682-.076 1.229-.051 2.559-.178 3.993-.384 1.433-.204 2.431-.538 2.995-.999.562-.46 1.049-1.099 1.459-1.919C79.813 128.686 80.02 127.61 80.02 126.278z"/><path fill="#fff" d="M195.818 70.989v78.326c0 10.852-3.713 18.53-11.135 23.037-7.425 4.504-18.252 6.757-32.482 6.757-11.672.0-20.633-.359-26.876-1.074v-15.051c10.032 1.329 18.99 1.996 26.876 1.996 7.473.0 12.874-1.205 16.203-3.609 3.325-2.406 4.991-6.527 4.991-12.363v-11.979c-2.561 3.789-5.325 6.373-8.294 7.756-2.971 1.382-8.14 2.073-15.511 2.073-10.65.0-18.252-1.587-22.807-4.762-4.558-3.172-6.835-9.061-6.835-17.661V95.409c0-10.033 2.098-16.868 6.297-20.503 4.197-3.634 12.337-5.452 24.419-5.452 5.323.0 9.419.333 12.287.998 2.865.667 5.015 1.639 6.45 2.918 1.433 1.281 3.019 3.302 4.761 6.066v-8.447H195.818zM173.396 123.053V93.105c0-3.993-1.025-6.628-3.072-7.91-2.049-1.278-6.707-1.919-13.976-1.919-6.042.0-9.882.743-11.519 2.227-1.639 1.485-2.457 4.276-2.457 8.37v28.412c0 4.403.818 7.271 2.457 8.601 1.637 1.332 5.887 1.996 12.747 1.996 6.552.0 10.828-.715 12.824-2.149C172.397 129.3 173.396 126.739 173.396 123.053z"/></g></svg>